<?xml version="1.0" encoding="UTF-8" standalone="no"?>
<!-- Created with Inkscape (http://www.inkscape.org/) -->

<svg
   xmlns:dc="http://purl.org/dc/elements/1.1/"
   xmlns:cc="http://creativecommons.org/ns#"
   xmlns:rdf="http://www.w3.org/1999/02/22-rdf-syntax-ns#"
   xmlns:svg="http://www.w3.org/2000/svg"
   xmlns="http://www.w3.org/2000/svg"
   xmlns:xlink="http://www.w3.org/1999/xlink"
   xmlns:sodipodi="http://sodipodi.sourceforge.net/DTD/sodipodi-0.dtd"
   xmlns:inkscape="http://www.inkscape.org/namespaces/inkscape"
   width="2048mm"
   height="2048mm"
   viewBox="0 0 2048 2048"
   version="1.1"
   id="svg8"
   inkscape:version="0.92.2 2405546, 2018-03-11"
   sodipodi:docname="icon2.svg">
  <defs
     id="defs2">
    <linearGradient
       gradientTransform="matrix(3.2252685,0,0,3.22582,265.85747,-1550.6228)"
       inkscape:collect="always"
       xlink:href="#linearGradient4574"
       id="linearGradient4576"
       x1="-56.66114"
       y1="-38.690529"
       x2="530.26276"
       y2="546.09515"
       gradientUnits="userSpaceOnUse" />
    <linearGradient
       inkscape:collect="always"
       id="linearGradient4574">
      <stop
         style="stop-color:#45d940;stop-opacity:1"
         offset="0"
         id="stop4570" />
      <stop
         style="stop-color:#337b30;stop-opacity:1"
         offset="1"
         id="stop4572" />
    </linearGradient>
  </defs>
  <sodipodi:namedview
     id="base"
     pagecolor="#ffffff"
     bordercolor="#666666"
     borderopacity="1.0"
     inkscape:pageopacity="0.0"
     inkscape:pageshadow="2"
     inkscape:zoom="0.10238536"
     inkscape:cx="3224.545"
     inkscape:cy="4575.3234"
     inkscape:document-units="mm"
     inkscape:current-layer="layer3"
     showgrid="false"
     inkscape:window-width="1680"
     inkscape:window-height="985"
     inkscape:window-x="0"
     inkscape:window-y="0"
     inkscape:window-maximized="1" />
  <metadata
     id="metadata5">
    <rdf:RDF>
      <cc:Work
         rdf:about="">
        <dc:format>image/svg+xml</dc:format>
        <dc:type
           rdf:resource="http://purl.org/dc/dcmitype/StillImage" />
        <dc:title></dc:title>
      </cc:Work>
    </rdf:RDF>
  </metadata>
  <g
     inkscape:label="Layer 1"
     inkscape:groupmode="layer"
     id="layer1"
     transform="translate(0,1751)" />
  <g
     inkscape:groupmode="layer"
     id="layer2"
     inkscape:label="Layer 2"
     transform="translate(0,1751)" />
  <g
     inkscape:groupmode="layer"
     id="layer3"
     inkscape:label="Layer 3"
     transform="translate(0,1751)">
    <rect
       style="fill:url(#linearGradient4576);fill-opacity:1;stroke:#004f00;stroke-width:0.8534252;stroke-opacity:0"
       id="rect4552"
       width="1892.9871"
       height="1886.4135"
       x="83.109917"
       y="-1675.4318" />
    <path
       style="fill:#ffffff;stroke:#000000;stroke-width:0.85476917;stroke-linecap:butt;stroke-linejoin:miter;stroke-miterlimit:4;stroke-dasharray:none;stroke-opacity:0"
       d="m 1001.8356,157.68562 40.0391,-0.19032 737.2519,-774.19005 -110.3381,-180.19206 -661.5974,538.85229 z"
       id="path4589"
       inkscape:connector-curvature="0" />
    <path
       style="fill:#ffffff;stroke:#000000;stroke-width:0.8534252px;stroke-linecap:butt;stroke-linejoin:miter;stroke-opacity:1"
       d="M 210.38962,-393.20155 79.948475,-33.51293 503.57719,-167.02446 l 5.48586,-224.34837 z"
       id="path4582"
       inkscape:connector-curvature="0" />
    <path
       style="fill:#000000;fill-opacity:1;stroke-width:0.8534252"
       d="m 241.17126,296.94009 c -16.0283,-0.83324 -39.3315,-4.85326 -56.10612,-9.67812 C 155.61746,278.79194 125.29736,263.43995 99.762589,244.07082 88.454798,235.4937 62.117256,209.15165 53.54159,197.84192 43.418117,184.49154 34.805682,170.54923 27.069232,154.98819 11.643096,123.96031 3.6566858,94.545354 0.9987419,58.969719 c -1.24979152,-16.730393 -1.24979152,-1554.560119 0,-1571.290519 2.6579439,-35.5756 10.6443541,-64.991 26.0704901,-96.0185 13.495167,-27.1446 26.221754,-44.7253 48.521906,-67.0293 22.300473,-22.304 39.877862,-35.0327 67.017852,-48.5306 31.02224,-15.4284 60.4325,-23.4161 96.00206,-26.0746 16.72752,-1.2499 1554.29415,-1.2499 1571.02175,0 35.5696,2.6585 64.9798,10.6462 96.0021,26.0746 27.14,13.4979 44.7177,26.2266 67.0177,48.5306 22.3002,22.304 35.0269,39.8847 48.5223,67.0293 15.4258,31.0275 23.4122,60.4429 26.0702,96.0185 1.2497,16.7304 1.2497,1554.560126 0,1571.290519 -2.658,35.575635 -10.6444,64.990591 -26.0702,96.018471 -13.4954,27.14463 -26.2221,44.72535 -48.5223,67.02931 -22.3,22.30397 -39.8777,35.03274 -67.0177,48.53022 -26.0735,12.96747 -49.6769,20.17814 -81.9218,25.02752 -9.2437,1.39 -55.3257,1.48032 -793.6177,1.55355 -431.09219,0.0419 -786.10816,-0.0419 -788.92414,-0.1871 z M 1817.7395,211.04165 c 12.4028,-2.1284 24.5562,-5.28292 34.134,-8.85971 58.6434,-21.90074 99.8578,-72.70708 109.8143,-135.371219 1.1507,-7.241967 1.442,-18.949759 1.7428,-70.0780393 l 0.3617,-61.3831627 -6.6351,6.197768 c -18.3986,17.184912 -49.7471,40.34759 -75.9767,56.1370117 -7.0975,4.2725988 -22.2595,14.4026413 -33.6927,22.5110633 -25.7893,18.28911 -41.6206,27.457536 -67.1137,38.867907 -33.9473,15.194258 -65.6342,26.499466 -118.7979,42.385021 -52.8064,15.77845 -40.7603,13.11521 -135.6832,29.99529 -59.8503,10.64262 -118.3235,15.11587 -279.4727,21.37815 -43.5247,1.69162 -176.7995,4.7268 -207.5457,4.7268 h -5.4294 l 3.4646,-4.90745 c 1.9057,-2.69936 5.2216,-7.40422 7.369,-10.45552 4.1558,-5.90519 9.481,-12.99489 20.1644,-26.84528 3.6378,-4.71615 8.4379,-11.01617 10.667,-14.00038 8.1921,-10.966499 34.6958,-44.462448 56.5195,-71.430626 4.9198,-6.079703 9.4104,-11.630372 9.9784,-12.334245 16.3295,-20.2391189 58.1516,-70.732236 64.9795,-78.452269 2.6647,-3.012916 5.421,-6.331962 6.1251,-7.375515 0.7041,-1.043552 3.1975,-3.955501 5.5413,-6.470995 2.3434,-2.515494 5.2549,-5.921315 6.4699,-7.568741 1.215,-1.647104 4.8657,-5.902606 8.1125,-9.45617 11.748,-12.857799 16.8359,-18.636529 18.1837,-20.653959 0.7554,-1.13097 1.9494,-2.64162 2.6535,-3.35776 0.7041,-0.7158 2.816,-3.15679 4.6934,-5.42389 1.8774,-2.26742 4.6118,-5.48454 6.0764,-7.14938 1.4645,-1.66485 4.6334,-5.491 7.0414,-8.50262 2.408,-3.01163 7.233,-8.77262 10.7221,-12.80231 3.4891,-4.0297 12.1625,-14.24038 19.2738,-22.68977 7.1114,-8.44972 13.5907,-16.13137 14.3987,-17.07008 7.5319,-8.75391 15.5473,-17.82007 18.8652,-21.33751 2.2135,-2.34711 6.5067,-6.95584 9.5397,-10.24197 3.033,-3.28583 7.5987,-8.10488 10.1464,-10.70844 2.5476,-2.60388 8.8037,-9.47198 13.9021,-15.26232 5.0985,-5.79035 13.2088,-14.60619 18.0225,-19.59041 9.709,-10.05327 15.2026,-16.27845 17.3297,-19.63815 2.0652,-3.26098 13.8474,-17.32814 21.601,-25.7901 3.7025,-4.04066 7.7893,-8.67552 9.0816,-10.29973 1.2927,-1.62388 5.2143,-5.61551 8.7147,-8.86971 8.7027,-8.09003 22.7679,-22.35235 30.634,-31.06368 6.6066,-7.31649 74.3462,-75.11935 79.7589,-79.83357 1.6171,-1.40807 6.7286,-6.08293 11.3593,-10.3881 4.6309,-4.30518 12.0677,-11.00037 16.5264,-14.8778 4.4589,-3.87777 12.4992,-11.10909 17.8676,-16.0704 5.3685,-4.96099 12.6647,-11.6965 16.2138,-14.96813 3.5491,-3.2713 6.7601,-6.44003 7.1352,-7.04132 0.3755,-0.60129 1.0998,-1.09323 1.6104,-1.09323 0.5102,0 3.7823,-2.59258 7.2713,-5.76099 7.7771,-7.06326 12.6848,-11.06166 23.7168,-19.32363 4.6934,-3.51517 9.2965,-7.08164 10.2289,-7.92552 2.4541,-2.22033 18.2508,-14.18425 20.2437,-15.33135 0.9289,-0.53484 3.093,-2.2784 4.8085,-3.87453 1.716,-1.59614 5.333,-4.37744 8.0384,-6.181 2.9327,-1.95516 5.1233,-4.09518 5.4259,-5.30067 0.3796,-1.51258 1.0976,-2.02162 2.8501,-2.02162 1.2886,0 3.3492,-0.8642 4.5783,-1.92033 1.2298,-1.05646 3.3979,-2.81389 4.8182,-3.90582 1.6282,-1.25162 2.5825,-2.75582 2.5825,-4.07035 0,-1.77032 0.3065,-2.00806 2.0329,-1.57483 1.7894,0.44935 2.1229,0.12902 2.785,-2.67195 0.4138,-1.75034 1.4195,-3.50905 2.2341,-3.90808 0.8151,-0.39904 2.1536,-1.05259 2.9751,-1.45194 0.8214,-0.39936 1.6104,-1.69647 1.7532,-2.88227 0.1419,-1.18549 1.1989,-3.03809 2.3467,-4.1168 1.1476,-1.07839 2.0868,-2.63259 2.0868,-3.45356 0,-0.82097 1.0147,-2.6984 2.2544,-4.17228 2.1941,-2.60808 2.2406,-2.90195 1.7352,-10.94779 -0.287,-4.54712 -0.7769,-12.49263 -1.0914,-17.6562 -0.6445,-10.58037 -2.4567,-15.73039 -8.8495,-25.14559 -5.2072,-7.66907 -8.3444,-14.3949 -12.5563,-26.91786 -3.1584,-9.39036 -7.3742,-20.30718 -10.5473,-27.31173 -0.4251,-0.93903 -1.6958,-4.20356 -2.824,-7.25487 -3.8748,-10.4823 -9.0972,-23.47526 -10.8059,-26.88526 -1.7733,-3.53809 -6.2725,-7.25455 -8.7825,-7.25455 -1.8336,0 -1.8851,2.2071 -0.068,2.90452 1.0727,0.41161 1.2505,1.22324 0.8138,3.71872 -0.3065,1.7555 -0.7718,4.83164 -1.0331,6.83584 -0.3064,2.36453 -1.0428,3.94841 -2.0935,4.51099 -0.8909,0.47678 -1.6197,1.62742 -1.6197,2.55679 0,4.83388 -15.6506,27.84204 -29.0982,42.77727 -8.4427,9.37682 -9.1655,10.0965 -10.1398,10.0965 -0.4603,0 -1.0747,0.94645 -1.365,2.10323 -0.2902,1.15678 -1.2574,2.33485 -2.1493,2.61808 -0.8921,0.28387 -1.6219,0.80839 -1.6219,1.1671 0,0.35871 -5.4698,5.03776 -12.1545,10.39778 -6.685,5.36003 -15.6836,12.62619 -19.9967,16.14685 -4.3128,3.52066 -10.8437,8.6252 -14.5127,11.34359 -3.6688,2.7184 -8.7827,6.67488 -11.3643,8.79165 -7.0143,5.75261 -16.8484,13.30845 -20.36,15.64394 -1.7089,1.13646 -5.6747,4.20905 -8.8125,6.82809 -3.1382,2.61905 -7.7116,6.10616 -10.1631,7.74907 -2.4516,1.64291 -6.2199,4.56583 -8.3748,6.49551 -2.1544,1.92936 -4.8772,4.00421 -6.0506,4.61067 -1.1733,0.60645 -4.9578,3.25291 -8.4095,5.88035 -14.2696,10.8623 -19.8877,15.02844 -24.633,18.26556 -1.5117,1.03129 -5.9251,4.17969 -9.8074,6.99615 -3.8826,2.81647 -7.8894,5.69712 -8.904,6.40132 -9.0698,6.29519 -22.6682,16.47136 -25.9644,19.42976 -2.2306,2.00195 -5.44,4.2184 -7.132,4.92551 -1.692,0.7071 -6.3509,3.67807 -10.3535,6.60195 -8.1025,5.91939 -8.4653,6.16778 -21.9421,15.02363 -10.4399,6.86002 -18.0837,11.64875 -25.3638,15.88973 -2.5816,1.50388 -7.9577,4.77196 -11.9471,7.26262 -14.7137,9.18617 -20.2585,12.43263 -29.1142,17.04491 -4.9833,2.59582 -12.6633,6.87809 -17.0671,9.5165 -4.4035,2.63871 -10.2974,6.01453 -13.0969,7.50196 -2.7995,1.48774 -5.7099,3.26581 -6.4672,3.95131 -0.7573,0.68548 -1.7797,1.24613 -2.2722,1.24613 -0.4922,0 -1.373,0.57613 -1.9571,1.28033 -0.5845,0.70419 -1.7366,1.28033 -2.5603,1.28033 -0.8237,0 -2.0025,0.60839 -2.6196,1.35226 -0.6173,0.74355 -3.6403,2.66194 -6.7182,4.26324 -3.0775,1.60098 -8.2837,4.4497 -11.5693,6.33067 -3.2853,1.88066 -7.5095,4.23874 -9.3869,5.23971 -1.8774,1.00129 -3.6055,2.07517 -3.8399,2.38678 -0.5857,0.77742 -8.1019,5.10454 -12.9437,7.45164 -2.1909,1.06226 -4.2296,2.32937 -4.5305,2.81647 -0.3,0.48677 -1.2792,0.88516 -2.1739,0.88516 -0.8949,0 -2.7792,1.05614 -4.1876,2.34711 -4.2639,3.9084 -7.514,6.18777 -8.8228,6.18777 -0.6825,0 -2.6908,1.15226 -4.4624,2.56065 -1.772,1.40807 -3.6724,2.56034 -4.2235,2.56034 -0.5513,0 -1.861,1.1613 -2.9099,2.58065 -1.0566,1.42904 -4.326,3.72357 -7.3265,5.14132 -2.9805,1.40871 -5.8542,3.08581 -6.3867,3.72743 -0.5324,0.64162 -3.932,1.8242 -7.5545,2.62807 -8.8196,1.95743 -8.9115,1.9913 -8.5257,3.14873 0.1838,0.55484 5.113,2.20065 10.9514,3.65743 9.7751,2.43905 15.3084,4.76809 15.3084,6.44294 0,0.36967 1.056,1.09419 2.3467,1.61 2.0177,0.80646 4.1816,2.34614 11.3072,8.04487 0.7037,0.56291 2.5279,1.9084 4.0532,2.99002 2.3444,1.66226 2.7734,2.49808 2.7734,5.40389 0,2.01356 0.6741,4.38421 1.6278,5.72358 2.7488,3.86098 1.5696,18.40265 -2.1258,26.21559 -1.2147,2.56775 -3.8745,11.09133 -5.9106,18.94105 -2.0365,7.85003 -5.2433,18.68942 -7.1266,24.08784 -1.8833,5.39841 -3.8091,11.96747 -4.2793,14.5978 -0.9663,5.40357 -12.1618,37.97274 -14.6337,42.57115 -2.9479,5.48357 -4.0599,11.19198 -3.7494,19.24782 0.3271,8.49069 2.7551,23.59753 3.9146,24.35753 0.4096,0.26774 0.9798,3.00679 1.2675,6.08518 l 0.5225,5.59712 -6.6586,7.1439 c -3.6623,3.92906 -7.3662,7.42132 -8.2309,7.76036 -0.8646,0.33903 -2.408,1.39517 -3.4297,2.34711 -2.3539,2.19323 -5.2405,2.34098 -4.6319,0.23871 0.2387,-0.82161 0.6919,-4.08615 1.0102,-7.25487 0.4819,-4.7997 0.3655,-5.761 -0.6966,-5.761 -1.6701,0 -2.5015,1.1726 -4.8428,6.8281 -2.1754,5.2555 -4.8002,8.53874 -6.8169,8.52714 -1.4575,0 -7.1801,-2.74873 -12.1173,-5.80261 -1.7181,-1.06259 -3.9932,-3.61066 -5.1186,-5.73261 -1.1146,-2.10098 -2.2705,-3.82002 -2.5695,-3.82002 -1.4723,0 -4.5609,13.92781 -5.2034,23.46527 -0.2999,4.45163 -2.6344,5.66647 -9.5215,4.9555 -4.3787,-0.45193 -5.1595,-0.8242 -6.5616,-3.13033 -0.8753,-1.43936 -1.839,-4.35809 -2.1415,-6.48551 -0.3032,-2.12776 -1.4324,-7.7094 -2.5103,-12.4036 -3.3836,-14.73232 -4.2463,-21.06784 -4.0976,-30.08594 0.1321,-8.05068 0.032,-8.74842 -1.4637,-8.74842 -2.0667,0 -3.0314,1.90452 -3.7825,7.46809 -0.4935,3.6555 -0.9096,4.48099 -2.2584,4.48099 -0.9096,0 -1.8584,0.53355 -2.1087,1.18581 -0.2516,0.65227 -1.1521,1.00388 -2.0039,0.78097 -2.2595,-0.59097 -9.25,4.9539 -13.4368,10.65811 -6.6731,9.09198 -12.1918,22.3201 -18.0559,43.27922 -3.5298,12.61651 -5.9639,25.734948 -10.4512,56.33088 -2.5235,17.205557 -3.3978,19.996536 -8.396,26.800436 -18.018,24.526878 -27.9602,41.7869514 -32.1282,55.775398 -0.6641,2.230009 -1.8249,6.070671 -2.5793,8.535197 -1.6797,5.48712 -4.9943,18.333626 -6.2215,24.111393 -0.4986,2.347106 -1.7023,12.909087 -2.6754,23.471067 -0.9727,10.56198 -2.1357,21.700091 -2.5844,24.751395 -0.449,3.051304 -1.3827,9.580694 -2.0751,14.509424 -0.6928,4.92905 -2.04,13.1865 -2.9941,18.3504 -0.954,5.16356 -2.0986,13.33972 -2.5431,18.16943 -0.4448,4.82937 -1.0366,9.15036 -1.3155,9.60165 -0.3194,0.51419 -24.80108,0.81355 -65.52526,0.80097 -55.04598,0 -72.28116,-0.33774 -112.37857,-2.09259 -46.98249,-2.05614 -47.64754,-2.11066 -83.20193,-6.80971 -19.7122,-2.60516 -42.94478,-5.88163 -51.62784,-7.28132 -8.68275,-1.39936 -26.34722,-3.91421 -39.2541,-5.5884 -26.49493,-3.43679 -46.18617,-6.61778 -71.68159,-11.58006 -38.13493,-7.42261 -56.19547,-10.15358 -75.5216,-11.42005 -29.97564,-1.9642 -58.63957,-3.06937 -100.26907,-3.86581 -33.7647,-0.64582 -42.77738,-0.52969 -69.12139,0.89064 l -30.29399,1.63291 -26.45397,5.06228 c -43.26053,8.27875 -73.87736,15.19974 -94.72227,21.4117 -6.10124,1.8184 -12.74949,3.7426 -14.77366,4.27583 -2.02387,0.53322 -4.21059,1.17323 -4.8592,1.42226 -2.82726,1.08517 -16.28502,-30.33593 -26.8052,-62.585747 -9.03204,-27.687214 -15.3597,-42.218888 -23.78958,-54.63507 -4.77759,-7.036159 -6.22445,-7.937131 -12.74917,-7.937131 -5.09592,0 -5.60906,-0.196774 -10.083797,-3.840661 -2.592794,-2.112267 -4.946917,-3.840661 -5.23074,-3.840661 -1.081433,0 0.482499,46.550197 1.863882,55.477331 9.624201,62.198009 51.026005,113.208869 109.654615,135.104129 13.82253,5.16228 32.9645,9.2339 48.21421,10.25584 2.34703,0.15806 355.25077,0.25484 784.23072,0.21291 747.2473,-0.0677 780.3398,-0.13549 788.9242,-1.60969 z M 633.54357,24.961511 c 1.7839,-0.748713 6.72598,-3.690983 10.98236,-6.538737 10.19992,-6.8239 11.52711,-7.46229 18.61367,-8.9529415 7.76871,-1.6345231 11.77868,-3.7313061 17.89798,-9.35778163 5.78517,-5.31937687 6.41313,-5.69292727 13.46228,-8.00358267 11.14846,-3.6542082 15.89251,-9.1410062 16.99071,-19.6500832 0.55185,-5.279377 0.63247,-5.413571 7.82643,-13.010054 7.08237,-7.478097 16.65659,-14.962644 23.69251,-18.520724 1.91451,-0.968069 7.09849,-2.796141 11.52033,-4.062598 16.59433,-4.752601 26.03598,-8.159067 31.46088,-11.35037 3.07594,-1.809364 10.10864,-5.872929 15.62805,-9.030039 5.51939,-3.15711 10.41536,-6.450995 10.88012,-7.319386 0.46475,-0.868714 0.84921,-5.349375 0.85437,-9.957144 0.0322,-13.13521 0.37961,-14.37135 5.00723,-16.97104 11.13523,-6.2555 22.97422,-8.88939 39.99774,-8.89842 10.92593,0 10.47696,0.22258 16.25858,-8.29165 3.53135,-5.20131 7.70517,-8.42229 21.50222,-16.5933 8.86046,-5.24743 17.04619,-11.7523 25.72636,-20.44266 l 7.37909,-7.38778 3.43878,-10.61779 c 1.89161,-5.8397 4.22381,-11.94811 5.18333,-13.57456 1.09175,-1.85066 2.22576,-6.38713 3.0311,-12.12457 0.70763,-5.04196 1.90098,-11.55812 2.65214,-14.48038 1.8126,-7.05391 7.25814,-17.14363 13.60579,-25.21011 2.84018,-3.60872 7.70033,-10.21037 10.80079,-14.66974 3.10013,-4.4597 8.94689,-12.33296 12.99235,-17.49685 4.04577,-5.16357 8.7553,-12.07683 10.46567,-15.36296 2.16383,-4.15744 5.7413,-8.70005 11.76247,-14.9362 4.7944,-4.9655 11.6391,-13.33844 15.3498,-18.77685 3.6833,-5.39841 9.2584,-13.08006 12.3896,-17.07008 3.1311,-3.99001 8.3514,-10.71134 11.6009,-14.93619 3.2498,-4.22486 8.8863,-10.85359 12.526,-14.73071 3.6397,-3.87679 6.8646,-8.03391 7.1669,-9.23745 0.3031,-1.20388 0.366,-5.04326 0.1418,-8.5323 -0.7375,-11.49617 -3.4187,-12.52844 -31.5547,-12.14941 l -19.8825,0.26775 -12.80042,-3.15453 c -7.04012,-1.73485 -15.68029,-3.39937 -19.20035,-3.69905 -9.29909,-0.79097 -21.18033,-3.77614 -42.1049,-10.5794 -17.85155,-5.80389 -25.79442,-9.0481 -28.94196,-11.82005 -0.82405,-0.72613 -1.73874,-1.08001 -2.03223,-0.78646 -1.0995,1.10001 -3.8942,-1.40839 -11.95382,-10.72907 -9.77063,-11.30005 -14.80914,-18.7775 -14.80914,-21.97784 0,-1.27033 -1.49781,-5.53164 -3.32848,-9.46939 -8.67113,-18.65201 -11.12395,-49.13118 -5.12527,-63.68995 0.96984,-2.35355 0.92049,-4.01647 -0.33576,-11.29908 -1.26172,-7.31487 -2.13964,-9.73327 -6.12381,-16.8704 -2.55796,-4.58227 -6.29088,-12.36424 -8.29571,-17.29297 l -3.64488,-8.96198 -0.43993,-14.08264 c -0.24189,-7.74551 -0.78438,-14.61715 -1.20528,-15.27038 -0.61538,-0.95517 -2.60044,-1.07581 -10.14434,-0.61775 -5.15881,0.31291 -9.71064,0.77452 -10.11509,1.02452 -0.40476,0.25161 -0.73601,3.19163 -0.73601,6.53616 0,6.59422 -1.71293,11.36424 -5.57971,15.53717 -1.15528,1.24677 -2.10029,2.55291 -2.10029,2.90291 0,0.35001 -1.44008,2.00195 -3.20012,3.67066 l -3.2001,3.03421 -84.05534,7.79777 c -46.23035,4.28905 -84.87584,7.57713 -85.8789,7.3068 -1.00306,-0.27096 -2.08159,-0.0742 -2.39702,0.43646 -0.65054,1.05291 -9.5655,1.28452 -10.00188,0.25807 -0.15481,-0.36743 -2.86694,-2.28776 -6.02351,-4.26744 -3.86032,-2.42098 -6.70082,-3.59937 -8.6763,-3.59937 -3.27042,0 -2.91048,-0.65452 -7.98543,14.51973 l -2.4296,7.26487 4.63342,3.40389 c 4.86177,3.57163 13.709,13.0007 17.56417,18.71879 2.19544,3.25679 2.41249,6.5639 0.61957,9.43617 -0.2935,0.46968 -0.5512,2.39001 -0.57378,4.26776 -0.0322,2.57872 -1.1398,5.20615 -4.53343,10.74198 -4.92757,8.03777 -9.50874,12.16199 -17.37484,15.64136 -2.66214,1.17742 -5.81774,3.41807 -7.23396,5.13679 -1.64908,2.00098 -4.30929,3.7526 -7.74258,5.09841 -8.90368,3.4897 -15.62578,8.13648 -17.39001,12.02069 -2.13318,4.6968 -1.98612,10.63845 0.41962,16.93459 2.60376,6.81358 7.48584,32.2066 7.98673,41.54018 0.38413,7.15746 0.34704,7.32358 -2.75858,12.37553 -1.73131,2.81679 -4.58665,8.19359 -6.34539,11.94909 -3.28074,7.00584 -10.19475,16.9533 -12.36148,17.78492 -0.66893,0.25806 -2.8247,2.50517 -4.79082,4.99679 -4.48893,5.68841 -13.18361,13.03102 -27.97759,23.62558 -6.01609,4.30873 -9.53453,10.17134 -9.51325,15.85233 0,3.41357 2.61343,19.01234 4.18285,25.08721 0.44379,1.71839 1.03725,5.8126 1.31849,9.09842 1.4217,16.60007 2.5786,23.85558 5.17075,32.43304 3.4262,11.33747 9.0788,31.60917 11.4239,40.96792 5.30073,21.15751 9.2891,43.87502 8.05382,45.87471 -0.56023,0.90645 3.20527,12.21682 8.45408,25.39236 9.48067,23.79849 10.15281,26.34398 10.92881,41.39469 0.78471,15.21459 2.50345,26.353985 5.10367,33.077561 3.35331,8.670682 5.93868,20.293635 5.93868,26.698824 0,12.497471 1.5462,20.12073 7.26396,35.815312 1.71003,4.694214 3.69777,10.455529 4.417,12.802635 1.96613,6.4171238 4.02191,9.9923004 10.01285,17.4142673 2.99563,3.7109835 5.72775,7.6484197 6.07157,8.7493917 0.3438,1.100973 3.28589,4.562923 6.53826,7.693258 5.89385,5.673251 5.92772,5.690993 10.3386,5.440992 2.43411,-0.138711 5.88514,-0.863552 7.66904,-1.612266 z M 189.42311,-74.621814 c 2.04611,-0.928391 4.15802,-1.690007 4.69374,-1.691943 1.53975,0 10.0551,-3.653886 13.44776,-5.760669 1.6981,-1.054198 3.48781,-1.917105 3.9774,-1.917105 2.3367,0 5.1085,-5.109376 5.68324,-10.475205 0.32253,-3.011623 1.1382,-6.539384 1.8126,-7.839394 0.67441,-1.30032 1.25657,-4.52873 1.29366,-7.17454 0.0386,-2.64549 0.27737,-4.28131 0.53378,-3.6355 0.25802,0.64613 1.64747,2.23033 3.0911,3.52034 2.55925,2.2871 2.59698,2.43033 1.50975,5.72518 -1.32494,4.015508 -1.04467,6.129383 0.98177,7.405838 1.10304,0.694842 1.93193,0.662907 3.1885,-0.122577 0.93403,-0.583549 2.86887,-1.060649 4.29993,-1.060649 2.8479,0 6.27185,-1.86549 8.96882,-4.885832 0.95371,-1.06839 2.14223,-1.94226 2.64118,-1.94226 0.49895,0 1.6023,-0.76807 2.45185,-1.70678 0.84953,-0.93904 2.04804,-1.70711 2.66342,-1.70711 0.61538,0 5.83612,-4.72454 11.60129,-10.49875 10.25894,-10.27488 27.11484,-23.77849 33.13964,-26.5485 1.66649,-0.76646 5.67131,-3.4984 8.89916,-6.07099 3.22785,-2.57292 6.12576,-4.67777 6.43958,-4.67777 0.31285,0 1.49329,-0.80129 2.62085,-1.78097 1.12787,-0.97968 6.58019,-4.09163 12.11574,-6.91519 10.56533,-5.38938 15.10909,-8.57198 15.10909,-10.58328 0,-0.67644 -0.83342,-1.20452 -1.9013,-1.20452 -1.68423,0 -1.53458,-0.30323 1.31107,-2.64807 1.76648,-1.45646 5.21429,-4.13679 7.6613,-5.95648 2.44702,-1.81936 5.4091,-4.11905 6.58245,-5.11035 2.14384,-1.81096 10.49858,-7.66906 23.80732,-16.69361 3.9416,-2.67259 8.51535,-6.04615 10.16379,-7.49617 1.64811,-1.45 4.79727,-3.78872 6.99787,-5.19679 4.85725,-3.1084 14.84236,-9.9765 18.31372,-12.59651 2.31445,-1.74677 11.23006,-8.31906 15.38549,-11.34166 15.27294,-11.10843 23.26129,-17.33265 28.98259,-22.58235 2.8334,-2.59969 7.07172,-6.24551 9.41843,-8.10197 9.73257,-7.69971 20.94424,-20.90396 25.00292,-29.44722 6.4528,-13.582 10.02285,-34.06112 6.06835,-34.80918 -0.74601,-0.14193 -3.70551,2.06421 -6.57697,4.90067 -2.87113,2.83646 -5.80774,5.15711 -6.52569,5.15711 -0.71794,0 -1.86711,1.3442 -2.55344,2.98711 -0.68634,1.64324 -1.57748,2.98744 -1.98032,2.98744 -1.21882,0 -6.08704,4.18776 -16.86267,14.50555 -21.49835,20.58524 -31.8679,29.19721 -44.45129,36.91757 -16.16569,9.9181 -32.19656,16.61555 -47.18729,19.71428 -3.47458,0.71806 -6.54665,1.64355 -6.82693,2.05646 -0.28059,0.4129 -3.1972,1.7613 -6.48247,2.99646 -8.79208,3.30581 -16.94781,6.70648 -17.92056,7.47229 -1.65069,1.29969 -16.41919,6.80809 -18.25276,6.80809 -1.02081,0 -3.23431,0.57613 -4.91919,1.28033 -1.68488,0.7042 -3.84323,1.28033 -4.7963,1.28033 -2.65891,0 -22.07535,4.78937 -33.04642,8.15132 -9.25491,2.83614 -17.97862,5.4497 -24.74717,7.41423 -1.64262,0.47677 -4.52279,1.36001 -6.40022,1.96258 -1.87711,0.60259 -5.85709,1.34614 -8.84369,1.65227 -2.98692,0.30645 -6.05899,0.86033 -6.82693,1.23129 -0.76793,0.37098 -2.81049,1.35356 -4.53924,2.18389 -1.72842,0.83033 -5.3333,3.95937 -8.01091,6.95358 -2.67763,2.9942 -5.13979,5.44421 -5.47168,5.44421 -0.3322,0 -0.87889,-5.85712 -1.21527,-13.01586 -0.3364,-7.15874 -0.95629,-17.04878 -1.37719,-21.97751 -0.4209,-4.92905 -0.92082,-14.33877 -1.11079,-20.91074 -0.33769,-11.67682 -1.92742,-23.42428 -3.29784,-24.37268 -0.37735,-0.26129 -1.23334,-4.10195 -1.90258,-8.53487 -0.66892,-4.43325 -1.60877,-9.08391 -2.08837,-10.33488 -0.51926,-1.3542 -0.83502,-10.85198 -0.78019,-23.47107 0.0903,-20.67848 0.14192,-21.28396 2.1232,-24.75172 1.11723,-1.95549 2.58988,-4.01873 3.27268,-4.58551 0.68279,-0.56677 1.2414,-1.75161 1.2414,-2.63291 0,-0.8813 0.31931,-1.60259 0.70924,-1.60259 0.38994,0 1.25398,-1.05613 1.92,-2.3471 0.66602,-1.29098 1.63973,-2.73099 2.16384,-3.20066 2.10642,-1.88646 4.01029,-20.05718 2.10158,-20.05718 -0.43219,0 -1.03757,-1.14775 -1.34559,-2.55066 -1.41911,-6.46164 -3.60262,-4.05453 -11.99315,13.21941 -7.34781,15.12845 -9.91609,22.223 -12.77755,35.29531 -1.16658,5.33003 -2.31607,10.0065 -2.55473,10.39263 -0.60119,0.97258 -5.39459,33.60917 -6.38926,43.50276 -0.44864,4.45938 -1.19496,11.94876 -1.65876,16.6433 -0.46379,4.69422 -1.06756,17.56071 -1.34139,28.59205 -0.67601,27.21431 -2.41668,40.29212 -8.12315,61.02511 -1.29205,4.6942 -2.85018,11.75359 -3.46233,15.68716 -0.61861,3.97453 -1.70036,7.73938 -2.43476,8.4739 -1.01885,1.01903 -1.32106,3.29196 -1.31881,9.91778 0.003,7.02326 0.44121,10.00134 2.3996,16.27749 1.31817,4.22486 3.21559,10.37005 4.21672,13.65619 1.00144,3.28582 2.84275,8.662945 4.09254,11.948761 1.24947,3.286143 2.53312,8.086809 2.85242,10.668755 0.31931,2.581946 0.97984,5.942605 1.46783,7.468096 0.79051,2.470656 1.23011,2.771947 4.02126,2.755172 1.72358,0 4.80791,-0.778389 6.85369,-1.707103 z m 16.63691,-62.713166 c -0.003,-4.22486 0.14191,-6.06067 0.3193,-4.08002 0.17739,1.98098 0.18061,5.43776 0,7.68164 -0.17739,2.24389 -0.32285,0.62323 -0.32543,-3.60162 z m 0.70053,-9.38843 c -0.0322,-0.93904 0.26447,-3.24324 0.6544,-5.12099 0.59346,-2.87033 0.70537,-3.00646 0.70312,-0.85355 -0.003,2.98969 -1.27786,8.59907 -1.35752,5.97454 z m 1.67617,-14.93619 c -0.0516,-1.64324 0.49411,-4.52357 1.21238,-6.40132 1.3001,-3.39776 1.30365,-3.39969 0.73697,-0.42678 -0.31285,1.64292 -0.85889,4.52357 -1.21238,6.40132 l -0.6428,3.41389 z M 91.337543,-201.13397 c 7.790314,-13.26972 13.853177,-22.82525 20.984887,-33.07304 3.10335,-4.45969 11.38391,-16.75006 18.4008,-27.31204 7.01722,-10.56199 16.13537,-24.01914 20.26243,-29.90497 14.36696,-20.48848 20.05245,-31.08853 24.44011,-45.56536 3.77486,-12.45586 4.78888,-14.41102 13.24973,-25.54591 9.12074,-12.00327 15.37421,-22.47687 15.36195,-25.72817 0,-1.40839 -1.12143,-5.63325 -2.48022,-9.38843 -1.35849,-3.7555 -4.07707,-11.24489 -6.04094,-16.64329 -3.22333,-8.86134 -3.72615,-11.35006 -5.17107,-25.60495 -0.8805,-8.68424 -1.61296,-17.93718 -1.62779,-20.56202 -0.0322,-5.33132 -0.33897,-5.76681 -8.69049,-12.26748 -2.65246,-2.06452 -5.0527,-3.52421 -5.3333,-3.24357 -0.2806,0.28066 -0.51057,-0.41774 -0.51057,-1.55194 0,-1.13452 -1.73712,-10.5123 -3.86064,-20.83976 -2.12319,-10.32714 -5.03012,-24.73011 -6.46021,-32.00594 -1.42976,-7.27617 -2.9566,-13.35748 -3.39266,-13.51393 -0.43638,-0.15484 -0.79922,-1.11645 -0.80664,-2.13355 -0.0354,-4.81938 -1.51458,-4.09035 -5.16623,2.54323 -4.20447,7.63842 -10.21475,14.41296 -16.18763,18.24653 -4.56375,2.92905 -12.56661,4.20227 -26.59201,4.23099 -11.40488,0.0323 -15.364537,-1.10807 -18.825896,-5.37842 -7.274593,-8.9739 -7.457787,-9.461 -7.443919,-19.76943 0.03225,-20.60557 2.436368,-43.12503 5.495212,-51.37602 3.202369,-8.63779 6.646311,-16.08008 8.940767,-19.32105 1.391056,-1.96485 2.761796,-4.54486 3.045946,-5.73293 0.54088,-2.26066 11.54839,-16.06911 13.8422,-17.36459 0.99888,-0.5642 1.15207,-0.45936 0.62345,0.42677 -1.1769,1.97195 16.0441,-16.2849 19.32904,-20.49202 3.62326,-4.64003 13.07201,-14.60683 13.84769,-14.60683 1.51038,0 27.4309,-13.09651 32.80452,-16.57491 8.50988,-5.50809 15.72964,-8.7452 22.80974,-10.22747 9.20396,-1.92646 27.22481,-8.00842 30.68166,-10.35488 3.64036,-2.47098 3.67035,-2.47711 4.02772,-0.84355 0.15481,0.70839 2.50603,-1.95162 5.36814,-6.07422 6.90916,-9.95263 15.4271,-17.63718 22.15082,-19.98396 7.44295,-2.59742 33.63278,-3.38873 44.58966,-1.34678 4.14092,0.77162 10.60115,1.76614 14.356,2.20969 3.75487,0.44354 9.27685,1.59355 12.27151,2.55549 2.99466,0.96195 6.89466,1.74905 8.66726,1.74905 1.77261,0 5.72549,1.12322 8.78466,2.49614 9.03785,4.0555 7.50198,4.61098 22.28629,-8.06101 l 7.98608,-6.84552 9.68291,-2.34548 c 11.91929,-2.88712 15.16683,-2.92324 19.77895,-0.21936 1.96517,1.15194 6.6418,2.8442 10.39214,3.76098 18.15665,4.43809 32.86032,8.83521 36.57326,10.93747 0.68376,0.3871 2.83533,2.18033 4.78113,3.98486 2.8147,2.61001 3.9745,3.17098 5.67486,2.7442 2.75052,-0.69033 11.10912,-6.40584 14.38309,-9.83488 1.71713,-1.7984 4.45925,-3.24228 8.47181,-4.46131 3.26301,-0.99129 8.64888,-3.34453 11.96833,-5.22938 7.99996,-4.54227 21.95505,-9.97036 27.79569,-10.81165 4.28735,-0.61743 5.24718,-0.42195 11.09363,2.25742 9.22266,4.22679 24.93004,15.06006 29.95822,20.6617 5.2988,5.90293 7.26525,9.60521 8.77919,16.52846 1.52813,6.98809 3.62488,11.71231 5.4507,12.28069 0.80632,0.25162 2.4854,1.00259 3.73131,1.66969 1.2456,0.66743 2.9737,1.22646 3.84001,1.24226 0.86631,0.0323 3.11109,0.77098 4.98852,1.67808 1.87743,0.9071 5.01498,1.66226 6.97239,1.67807 3.96224,0.0323 3.89096,-0.10323 5.00884,9.41746 0.30317,2.58195 1.36783,5.91454 2.36573,7.40583 1.70778,2.55227 2.04837,2.68356 5.80226,2.23904 3.92612,-0.46515 3.99773,-0.43 4.58697,2.25389 0.32931,1.49936 1.19401,2.95453 1.92163,3.23388 1.62939,0.62549 3.63616,-1.92839 3.63616,-4.62712 0,-1.08387 0.22576,-1.97064 0.50088,-1.97064 0.27415,0 17.37259,-1.72808 37.99367,-3.84067 20.62139,-2.11226 37.62824,-3.84066 37.79337,-3.84066 0.16449,0 0.53636,1.17936 0.8247,2.62098 0.42348,2.11807 0.89405,2.5684 2.45314,2.34711 1.48201,-0.20968 1.99128,-0.91742 2.19673,-3.04776 0.18706,-1.92549 0.70763,-2.77485 1.70681,-2.77743 0.79149,0 20.25565,-1.97549 43.25344,-4.38518 22.99777,-2.40968 44.14553,-4.37389 46.99473,-4.36486 5.8371,0.0323 8.60309,1.79969 11.08461,7.13746 4.3912,9.44584 4.61149,9.59325 12.43889,8.33809 3.45588,-0.5542 6.38442,-1.08194 6.50763,-1.17258 0.12255,-0.0904 -1.64779,-4.54518 -3.93548,-9.89843 -3.49781,-8.18584 -8.81627,-24.73269 -10.70789,-33.3137 -0.27737,-1.25967 0.21287,-4.29872 1.11981,-6.93486 0.8876,-2.58066 2.06805,-6.87906 2.62279,-9.55197 0.55475,-2.67292 2.12803,-7.57455 3.49587,-10.89263 4.68116,-11.35424 3.33589,-13.7449 -8.73693,-15.52684 -11.84577,-1.74839 -31.42669,-8.58714 -37.2025,-12.99296 -1.52588,-1.1642 -2.77437,-1.83808 -2.77437,-1.49775 0,0.34064 -0.96307,-0.2871 -2.14062,-1.39226 -5.77839,-5.4297 -14.07313,-26.70689 -14.07313,-36.10047 0,-5.61293 4.62406,-24.28882 8.18186,-33.04693 1.20334,-2.96129 3.56069,-7.52874 5.23912,-10.14971 1.67843,-2.62131 5.03916,-8.99326 7.46811,-14.16007 2.42895,-5.16711 5.81354,-11.33972 7.52132,-13.71714 1.70778,-2.37712 5.22429,-8.43843 7.81516,-13.4691 2.59053,-5.03066 8.30603,-15.18135 12.70142,-22.55686 12.90366,-21.65332 14.07346,-25.44463 8.46117,-27.42625 -1.76002,-0.62129 -3.77614,-1.62517 -4.48022,-2.23066 -0.70407,-0.60516 -3.39492,-2.03194 -5.97996,-3.17034 -4.9079,-2.16162 -9.38038,-6.85809 -9.38038,-9.85068 0,-0.90356 -2.39992,-4.12647 -5.3333,-7.16164 -7.04077,-7.28519 -7.81096,-8.29971 -10.5534,-13.90135 -2.77244,-5.66296 -7.9719,-10.57134 -16.7527,-15.81514 -6.2354,-3.7237 -6.46472,-3.9782 -7.51938,-8.3486 -0.95694,-3.9663 -0.87373,-5.5935 0.69408,-13.5432 1.4604,-7.4068 2.25768,-9.5939 4.42313,-12.1352 7.76773,-9.1161 9.16588,-13.5488 10.39923,-32.9727 0.72665,-11.4404 1.28462,-14.902 3.43814,-21.3373 1.41395,-4.2247 2.69407,-8.8635 2.84468,-10.3084 0.15159,-1.4445 1.8484,-6.4667 3.77293,-11.16 1.92418,-4.6936 3.45296,-9.4646 3.39717,-10.6026 -0.0549,-1.1378 0.72149,-5.9097 1.72713,-10.6039 2.22995,-10.4084 3.05465,-16.8946 5.15527,-40.5411 1.69004,-19.0227 4.75533,-37.936 7.80547,-48.1632 2.97144,-9.9629 9.57259,-25.3876 14.72948,-34.4175 4.80242,-8.4094 7.94255,-15.9763 12.3073,-29.6544 1.79486,-5.6251 2.18835,-8.5681 2.23317,-16.7045 0.0645,-11.6007 0.2548,-11.1898 -9.61677,-20.8463 -4.33412,-4.2403 -8.31668,-9.1732 -10.65791,-13.2017 -2.0561,-3.5377 -5.45877,-8.3522 -7.56163,-10.6993 -5.19849,-5.802 -6.11415,-9.0304 -5.57231,-19.6456 0.50928,-9.9845 2.26834,-14.974 6.54924,-18.5769 3.11109,-2.618 3.68067,-2.7397 6.01513,-1.2816 1.32042,0.8249 2.66568,0.781 6.56245,-0.2129 l 4.90208,-1.2506 1.96741,-7.6813 c 1.08208,-4.2249 2.57184,-10.9184 3.31074,-14.8743 2.43379,-13.0297 5.32911,-21.4537 10.14122,-29.5079 5.67154,-9.4926 17.6505,-23.0485 24.15812,-27.3388 2.68149,-1.7677 6.68373,-4.7162 8.89433,-6.552 2.2106,-1.8358 7.39489,-4.8116 11.52033,-6.6126 11.33425,-4.948 28.68425,-14.9682 42.96574,-24.8133 2.60924,-1.7987 8.75338,-5.2026 13.65353,-7.5645 4.90047,-2.3617 11.78997,-6.0001 15.31002,-8.085 5.62971,-3.3344 7.22203,-3.8622 13.22683,-4.3838 11.10105,-0.9646 14.54435,-3.1832 26.56202,-17.1178 4.14605,-4.8075 4.74855,-5.1781 11.52035,-7.0839 3.93,-1.1058 10.375,-2.753 14.3225,-3.6601 3.947,-0.9067 11.8192,-3.1564 17.4935,-4.999 19.6158,-6.3694 23.0735,-6.9784 43.5975,-7.6778 19.4023,-0.6613 30.8372,-2.0848 44.8009,-5.5765 4.459,-1.1148 10.9869,-2.4719 14.507,-3.0157 3.52,-0.5437 11.5845,-2.4843 17.9206,-4.3123 6.336,-1.8281 15.6335,-4.1016 20.6604,-5.052 5.0272,-0.9506 10.6137,-2.2484 12.4147,-2.8839 2.7989,-0.9877 3.5159,-0.9762 4.9398,0.08 1.2224,0.9068 3.0285,1.1042 6.786,0.7429 2.8159,-0.2709 11.0723,-0.6934 18.3473,-0.9396 7.2745,-0.2452 13.9947,-0.7868 14.9335,-1.2023 0.9386,-0.4154 3.8804,-0.9458 6.5374,-1.1784 2.6569,-0.2322 5.8532,-1.0935 7.103,-1.9125 1.2497,-0.8191 3.492,-1.6032 4.983,-1.743 1.4907,-0.1387 3.0943,-0.2968 3.5636,-0.349 0.4696,-0.051 1.632,0.1483 2.5837,0.4429 1.1248,0.35 2.4687,-0.09 3.8401,-1.2588 2.787,-2.3738 8.3992,-5.9838 9.303,-5.9838 0.3947,0 1.3078,0.9013 2.0296,2.0029 0.9373,1.4306 2.7386,2.3058 6.3025,3.0623 4.5267,0.961 5.5035,0.887 10.5195,-0.7939 5.9626,-1.9984 13.6387,-6.0584 15.3474,-8.1174 1.7459,-2.1046 8.2175,-1.4994 19.1959,1.7942 5.632,1.6899 10.9591,3.4516 11.8383,3.9151 0.8789,0.4633 5.295,1.8145 9.8136,3.0023 6.8082,1.7897 9.7503,2.1148 17.1755,1.8978 14.5785,-0.4268 35.6786,-0.3252 44.3746,0.2128 8.9862,0.5565 12.9333,1.2823 16.1759,2.9749 1.194,0.6232 3.3734,1.1355 4.8428,1.1383 2.6799,0 10.9791,2.8424 16.4843,5.6346 2.8428,1.4419 2.8789,1.521 1.0666,2.3297 -3.0876,1.3777 -2.2996,3.1368 1.4056,3.1368 2.2664,0 3.7839,0.5607 4.9065,1.8135 l 1.6257,1.8136 -2.7406,-0.5939 c -1.5256,-0.3306 -3.4175,-0.2 -4.267,0.2936 -1.1985,0.6978 -0.5648,0.8936 2.9573,0.9138 2.8101,0 5.6716,0.6633 7.6677,1.7333 1.7513,0.9387 3.6488,1.7068 4.2163,1.7068 0.9247,0 11.5485,4.7965 14.7802,6.6729 0.7041,0.4087 2.24,1.2636 3.4133,1.8997 1.1733,0.6358 4.0536,2.2064 6.4002,3.49 3.9545,2.163 16.4785,6.6833 18.6695,6.7385 0.5266,0 3.2534,1.5496 6.0593,3.4141 2.806,1.8643 5.7226,3.3898 6.4815,3.3898 0.7585,0 2.0745,0.768 2.9237,1.7071 0.8495,0.9387 1.8961,1.707 2.3255,1.707 0.4292,0 2.455,1.1519 4.5015,2.5604 2.0464,1.4084 4.1438,2.5606 4.6608,2.5606 0.5167,0 1.155,0.5613 1.4185,1.2478 0.2644,0.6861 1.2788,1.5016 2.2573,1.8122 0.9782,0.3097 3.1508,1.9091 4.828,3.5519 1.6767,1.6433 4.4353,3.871 6.1295,4.9511 2.8522,1.8177 4.5854,5.2313 4.417,8.6984 -0.032,0.5816 0.2645,0.8635 0.6467,0.6261 0.3841,-0.2387 0.9453,-0.032 1.2472,0.4571 0.3032,0.4888 0.2322,0.8336 -0.1548,0.7662 -2.2951,-0.3987 -3.0266,0.1032 -1.9836,1.3603 1.1773,1.4187 2.968,1.7771 2.1336,0.4268 -0.2903,-0.4694 -0.1194,-0.8536 0.3764,-0.8536 0.4967,0 0.9034,0.4838 0.9034,1.0748 0,0.5914 0.7333,1.5333 1.63,2.0933 0.8967,0.56 1.8848,2.1781 2.1961,3.5962 1.0247,4.6657 9.7316,10.1555 21.8048,13.7475 9.9574,2.9625 19.9379,9.3145 12.3585,7.8654 -1.1875,-0.2257 -5.4187,-0.1419 -9.4026,0.1904 -7.2356,0.6029 -7.2443,0.6064 -7.9387,3.3013 -0.4669,1.8125 -1.29,2.7844 -2.5083,2.9629 -2.514,0.3677 -3.3474,4.4752 -1.4852,7.3177 1.193,1.8214 4.2396,3.4471 7.6661,4.0911 0.4693,0.087 2.0039,1.2358 3.4101,2.5503 1.4062,1.3144 4.7663,3.4393 7.4668,4.7223 2.7006,1.2825 4.9102,2.8254 4.9102,3.4283 0,0.6026 0.3912,1.0962 0.8698,1.0962 0.4783,0 3.9862,2.6936 7.7956,5.9855 3.809,3.2922 9.7538,7.7491 13.2103,9.9036 3.4565,2.1548 6.2847,4.0261 6.2847,4.1587 0,0.1323 -0.5553,1.3116 -1.2342,2.6203 -1.1628,2.242 -1.0853,2.5678 1.3362,5.6259 1.4136,1.7852 3.4288,3.7348 4.4776,4.3326 6.2161,3.541 8.1339,4.8845 12.0197,8.4213 2.3692,2.1565 5.7831,4.9045 7.586,6.1065 4.9467,3.2974 14.2158,12.4568 14.2158,14.0471 0,1.139 -0.3987,1.0268 -2.1304,-0.6 -1.1714,-1.101 -2.2702,-1.84 -2.4421,-1.6426 -0.171,0.1968 6.0683,9.6062 13.8667,20.9079 13.6545,19.7888 14.3322,20.9726 18.3215,32.0063 9.5862,26.511 18.6369,54.2398 22.2305,68.1077 3.4962,13.4923 4.1151,15.1013 6.8652,17.8523 3.4318,3.4323 3.5491,3.9826 1.6572,7.7752 -1.3317,2.6703 -1.2875,2.8987 1.7749,9.18 2.7269,5.5935 3.0698,6.9642 2.6034,10.4088 -0.4625,3.4164 -0.045,5.1397 3.0011,12.4139 4.4976,10.7371 7.5456,20.8697 8.2361,27.382 l 0.5412,5.1029 -2.7638,-2.3257 c -2.2508,-1.8945 -3.0781,-2.1581 -4.4569,-1.4201 -2.5325,1.3559 -2.7934,2.9604 -1.207,7.4233 2.3645,6.6513 2.5006,7.8077 0.9879,8.3884 -0.7576,0.2903 -1.3897,1.1598 -1.4049,1.931 0,0.7713 -0.5534,2.0967 -1.1972,2.9458 -1.3527,1.7845 -0.5573,5.7226 2.0649,10.2281 2.2221,3.8181 5.1332,12.8449 5.1332,15.9181 0,1.9633 -0.5766,2.8639 -2.4567,3.8362 -3.8945,2.0142 -4.8101,7.1114 -1.9438,10.8204 1.8658,2.4142 4.4005,9.6062 4.4005,12.4855 0,1.1209 -0.4002,2.7858 -0.8895,3.7001 -0.6792,1.2696 -0.3393,3.3209 1.4424,8.6922 1.2823,3.8665 2.2909,7.2223 2.2419,7.4569 -0.048,0.2354 0.2935,0.8899 0.7644,1.4564 0.4699,0.5661 0.6231,1.4038 0.3403,1.8613 -0.2839,0.4574 -0.142,1.0619 0.3127,1.3432 0.7913,0.489 0.4116,13.7007 -0.4328,15.0669 -0.2128,0.3454 0.068,1.6277 0.6235,2.849 0.7741,1.699 0.7763,2.4561 0,3.222 -0.5506,0.5506 -1.0008,2.4454 -1.0008,4.2113 0,2.0093 -0.5925,3.7809 -1.5839,4.7368 -3.6414,3.5106 -4.2268,5.478 -3.5089,11.7942 0.3749,3.3 1.276,8.2929 2.002,11.0959 1.9316,7.4554 0.9944,17.0319 -5.5958,57.15857 l -3.5043,21.33751 1.3746,16.57394 1.3749,16.57395 -2.1061,6.27486 c -1.1585,3.4513 -2.1061,8.00874 -2.1061,10.12778 0,6.19326 -8.8733,34.69499 -12.8187,41.17598 -1.6708,2.74356 -3.395,3.02195 -3.395,0.54742 0,-1.56 -2.0468,-1.59645 -3.3227,-0.0581 -0.5341,0.64388 -1.908,3.92518 -3.0527,7.29132 -1.592,4.68099 -3.2088,7.36745 -6.8733,11.41876 -2.6354,2.91356 -5.6288,5.74454 -6.6519,6.29067 -1.023,0.54646 -2.4686,2.08259 -3.2123,3.41389 -0.7438,1.33161 -1.8958,2.47259 -2.5599,2.53581 -0.6644,0.0645 -1.6878,0.15807 -2.2745,0.21291 -0.5866,0.0549 -1.0669,0.6471 -1.0669,1.31775 0,0.67065 -0.6192,1.83872 -1.3765,2.59614 -0.9796,0.97968 -1.3672,2.90485 -1.3443,6.67551 0.032,2.9142 0.035,7.70551 0.039,10.64746 0,6.78906 1.9275,13.41199 5.1841,17.90879 1.4016,1.93484 3.1217,4.89098 3.8229,6.56906 0.7008,1.67807 3.2123,5.10067 5.581,7.60551 2.3686,2.50485 4.3067,5.01003 4.3067,5.56713 0,1.77581 4.019,9.02262 7.422,13.38231 4.8778,6.24938 8.2979,11.94101 11.7612,19.57363 1.7026,3.75195 3.8881,7.66552 4.8569,8.69713 0.9689,1.0313 2.0997,3.6855 2.5128,5.89842 0.4135,2.21259 1.7104,5.28034 2.8821,6.8168 1.1718,1.53646 2.2394,3.50711 2.3725,4.37905 0.4351,2.85162 4.6896,9.23584 8.489,12.73876 4.309,3.97228 10.3889,7.001 19.4381,9.68231 3.52,1.0429 7.168,2.19742 8.1066,2.56549 0.9389,0.36807 2.5413,0.68709 3.5608,0.70903 1.0198,0.0323 4.9703,1.02452 8.7794,2.22808 3.809,1.20323 9.0137,2.43356 11.5658,2.73356 2.5518,0.3 4.4348,0.87774 4.1839,1.28355 -0.2516,0.40645 0.1322,0.73871 0.8521,0.73871 1.6458,0 4.0825,4.60551 4.516,8.53488 0.1806,1.64291 1.1127,6.0597 2.07,9.8152 2.2335,8.76455 3.519,26.1185 2.616,35.31273 -0.6489,6.6039 -0.4864,7.96616 2.1406,17.9233 1.5632,5.92712 4.3228,14.61717 6.1319,19.31137 1.8094,4.69422 3.7158,11.41553 4.2371,14.93619 0.6866,4.64164 2.0137,8.49424 4.8278,14.01588 2.8121,5.51744 3.5952,7.79067 2.8443,8.25486 -0.981,0.60646 0,3.05163 4.2045,10.58909 1.5869,2.83775 4.508,11.60424 4.0917,12.27843 -0.2129,0.34678 0.3425,1.74711 1.2374,3.11163 0.9495,1.44742 1.4337,3.25323 1.1625,4.33453 -0.2548,1.01936 -0.052,2.11001 0.4576,2.42356 0.507,0.31291 0.9224,1.37968 0.9224,2.36905 0,0.98935 0.2645,1.53484 0.5864,1.21226 0.9047,-0.90484 8.7447,20.71267 8.7853,24.22397 0.039,3.40969 13.3526,27.48625 16.4263,29.70691 0.867,0.62644 2.041,1.69162 2.6092,2.36678 2.0123,2.39227 15.9406,13.99135 16.8005,13.99135 0.4806,0 0.8733,0.9829 0.8733,2.1842 0,1.20129 -0.3438,1.97162 -0.764,1.71194 -0.4203,-0.25806 -0.984,0.10323 -1.2534,0.80291 -0.326,0.85001 0.039,1.27549 1.0995,1.27549 2.0171,0 2.5812,1.48935 2.052,5.41841 -0.4087,3.03194 -0.3429,3.11905 2.4231,3.21775 1.5636,0.0549 3.3514,0.0323 3.9729,-0.0516 1.771,-0.23871 3.6639,1.75065 5.3046,5.57873 0.8292,1.93485 3.1885,5.41099 5.2426,7.72423 9.6571,10.8752 14.9531,20.12137 21.1443,36.91564 1.3552,3.67679 4.9891,11.90005 8.0751,18.27427 3.0862,6.37422 5.611,11.8065 5.611,12.07135 0,0.26451 2.1415,4.99195 4.7588,10.50423 7.8727,16.57975 8.705,18.34975 11.1317,23.67784 1.2827,2.81646 3.792,8.76972 5.5756,13.22909 l 3.2433,8.10842 -0.2161,-601.71642 c -0.1999,-560.5317 -0.3129,-602.3116 -1.6575,-610.4109 -6.2908,-37.8919 -22.4658,-69.9232 -48.416,-95.8778 -26.2521,-26.2566 -58.41,-42.3834 -96.4478,-48.3675 -9.4156,-1.4812 -41.5831,-1.5437 -792.7643,-1.5437 -751.18103,0 -783.34889,0.061 -792.7641,1.5437 -38.01333,5.9801 -70.16958,22.1134 -96.43327,48.3815 -25.97469,25.9792 -41.783027,57.2296 -48.35806,95.5962 -1.468142,8.5683 -1.545871,37.9503 -1.767447,669.35585 -0.129011,363.21701 -0.09031,660.3944 0.08386,660.3944 0.174165,0 3.078196,-4.70485 6.454408,-10.4552 z"
       id="path27"
       inkscape:connector-curvature="0" />
  </g>
</svg>
