<?xml version="1.0" encoding="UTF-8" standalone="no"?>
<!-- Created with Inkscape (http://www.inkscape.org/) -->

<svg
   xmlns:dc="http://purl.org/dc/elements/1.1/"
   xmlns:cc="http://creativecommons.org/ns#"
   xmlns:rdf="http://www.w3.org/1999/02/22-rdf-syntax-ns#"
   xmlns:svg="http://www.w3.org/2000/svg"
   xmlns="http://www.w3.org/2000/svg"
   xmlns:xlink="http://www.w3.org/1999/xlink"
   xmlns:sodipodi="http://sodipodi.sourceforge.net/DTD/sodipodi-0.dtd"
   xmlns:inkscape="http://www.inkscape.org/namespaces/inkscape"
   width="64mm"
   height="64mm"
   viewBox="0 0 64 64"
   version="1.1"
   id="svg8"
   inkscape:version="0.92.4 5da689c313, 2019-01-14"
   sodipodi:docname="com.szibele.e-juice-calc.svg">
  <defs
     id="defs2">
    <linearGradient
       gradientTransform="matrix(0.10078369,0,0,0.10080507,8.305637,239.2583)"
       inkscape:collect="always"
       xlink:href="#linearGradient4574"
       id="linearGradient4576"
       x1="-56.66114"
       y1="-38.690529"
       x2="530.26276"
       y2="546.09515"
       gradientUnits="userSpaceOnUse" />
    <linearGradient
       inkscape:collect="always"
       id="linearGradient4574">
      <stop
         style="stop-color:#45d940;stop-opacity:1"
         offset="0"
         id="stop4570" />
      <stop
         style="stop-color:#337b30;stop-opacity:1"
         offset="1"
         id="stop4572" />
    </linearGradient>
  </defs>
  <sodipodi:namedview
     id="base"
     pagecolor="#ffffff"
     bordercolor="#666666"
     borderopacity="1.0"
     inkscape:pageopacity="0.0"
     inkscape:pageshadow="2"
     inkscape:zoom="0.072397382"
     inkscape:cx="952.59454"
     inkscape:cy="2701.4963"
     inkscape:document-units="mm"
     inkscape:current-layer="layer3"
     showgrid="false"
     inkscape:window-width="1680"
     inkscape:window-height="985"
     inkscape:window-x="0"
     inkscape:window-y="0"
     inkscape:window-maximized="1" />
  <metadata
     id="metadata5">
    <rdf:RDF>
      <cc:Work
         rdf:about="">
        <dc:format>image/svg+xml</dc:format>
        <dc:type
           rdf:resource="http://purl.org/dc/dcmitype/StillImage" />
        <dc:title></dc:title>
      </cc:Work>
    </rdf:RDF>
  </metadata>
  <g
     inkscape:label="Layer 1"
     inkscape:groupmode="layer"
     id="layer1"
     transform="translate(0,-233)" />
  <g
     inkscape:groupmode="layer"
     id="layer2"
     inkscape:label="Layer 2"
     transform="translate(0,-233)" />
  <g
     inkscape:groupmode="layer"
     id="layer3"
     inkscape:label="Layer 3"
     transform="translate(0,-233)">
    <rect
       style="fill:url(#linearGradient4576);fill-opacity:1;stroke:#004f00;stroke-width:0.02666851;stroke-opacity:0"
       id="rect4552"
       width="59.152355"
       height="58.949368"
       x="2.5951126"
       y="235.35808" />
    <path
       style="fill:#ffffff;stroke:#000000;stroke-width:0.02671051;stroke-linecap:butt;stroke-linejoin:miter;stroke-miterlimit:4;stroke-dasharray:none;stroke-opacity:0"
       d="m 31.303596,292.642 1.251148,-0.01 23.037763,-24.193 -3.447865,-5.6309 -20.673698,16.8388 z"
       id="path4589"
       inkscape:connector-curvature="0" />
    <path
       style="fill:#ffffff;stroke:#000000;stroke-width:0.02666851px;stroke-linecap:butt;stroke-linejoin:miter;stroke-opacity:1"
       d="m 6.5723685,275.4271 -4.0760454,11.2401 13.2376159,-4.1722 0.171423,-7.0108 z"
       id="path4582"
       inkscape:connector-curvature="0" />
    <path
       style="fill:#000000;fill-opacity:1;stroke-width:0.02666851"
       d="m 7.534238,296.9936 c -0.5008549,-0.026 -1.2290369,-0.1516 -1.753213,-0.3024 -0.9201856,-0.2647 -1.8676325,-0.7444 -2.6655472,-1.3497 -0.3533476,-0.268 -1.1763473,-1.0912 -1.4443209,-1.4446 -0.31634,-0.4172 -0.5854626,-0.8529 -0.82721245,-1.3392 -0.4820383,-0.9696 -0.7315989,-1.8888 -0.8146547,-3.0005 -0.039053,-0.5228 -0.039053,-48.5791 0,-49.1019 0.083056,-1.1118 0.3326164,-2.031 0.8146547,-3.0006 0.42169915,-0.8482 0.81938145,-1.3976 1.51622005,-2.0946 0.6968487,-0.697 1.2461097,-1.0947 2.0941844,-1.5165 0.9693876,-0.4821 1.8884042,-0.7318 2.9998871,-0.8148 0.5227039,-0.039 48.568826,-0.039 49.091531,0 1.111485,0.083 2.0305,0.3327 2.99989,0.8148 0.848075,0.4218 1.397345,0.8195 2.09418,1.5165 0.69684,0.697 1.094525,1.2464 1.51623,2.0946 0.48203,0.9696 0.73159,1.8888 0.814645,3.0006 0.03905,0.5228 0.03905,48.5791 0,49.1019 -0.08306,1.1117 -0.332615,2.0309 -0.814645,3.0005 -0.421705,0.8483 -0.81939,1.3977 -1.51623,2.0946 -0.696835,0.697 -1.246105,1.0948 -2.09418,1.5166 -0.81475,0.4052 -1.55231,0.6305 -2.559905,0.7821 -0.28885,0.043 -1.728825,0.046 -24.79909,0.049 -13.470835,0 -24.5644301,0 -24.6524241,-0.01 z m 49.264849,-2.6842 c 0.387565,-0.067 0.767335,-0.1651 1.066625,-0.2769 1.832495,-0.6844 3.12037,-2.272 3.431495,-4.2303 0.03595,-0.2263 0.04505,-0.5922 0.05446,-2.1899 l 0.0113,-1.9181 -0.207335,0.1936 c -0.574925,0.537 -1.554505,1.2609 -2.37413,1.7543 -0.221785,0.1335 -0.69557,0.45 -1.052835,0.7034 -0.80587,0.5715 -1.30057,0.8581 -2.09718,1.2146 -1.06079,0.4749 -2.05095,0.8281 -3.712215,1.3246 -1.650105,0.493 -1.273685,0.4098 -4.239851,0.9373 -1.870211,0.3326 -3.697391,0.4724 -8.733006,0.668 -1.360067,0.053 -5.524658,0.1477 -6.48542,0.1477 h -0.169659 l 0.108262,-0.1533 c 0.05955,-0.084 0.163165,-0.2314 0.230268,-0.3267 0.129862,-0.1846 0.296264,-0.4061 0.6301,-0.8389 0.113675,-0.1474 0.263669,-0.3443 0.333324,-0.4375 0.255988,-0.3427 1.08418,-1.3895 1.766131,-2.2322 0.153734,-0.19 0.294056,-0.3635 0.311805,-0.3855 0.510268,-0.6324 1.817131,-2.2103 2.030491,-2.4515 0.08327,-0.094 0.169395,-0.1979 0.191397,-0.2305 0.022,-0.033 0.09992,-0.1236 0.173156,-0.2022 0.07323,-0.079 0.164205,-0.1851 0.202172,-0.2366 0.03796,-0.051 0.152044,-0.1844 0.2535,-0.2954 0.367104,-0.4018 0.526091,-0.5824 0.568208,-0.6455 0.02361,-0.035 0.06092,-0.082 0.08292,-0.1049 0.02201,-0.023 0.08799,-0.099 0.146662,-0.1695 0.05866,-0.071 0.144109,-0.1714 0.189875,-0.2234 0.04576,-0.052 0.144785,-0.1716 0.220031,-0.2657 0.07525,-0.094 0.226018,-0.2741 0.335046,-0.4001 0.109027,-0.1259 0.380055,-0.445 0.602271,-0.7091 0.222218,-0.264 0.424684,-0.504 0.449933,-0.5334 0.235357,-0.2735 0.485824,-0.5568 0.589502,-0.6668 0.06917,-0.073 0.203322,-0.2173 0.298098,-0.32 0.09478,-0.1027 0.237445,-0.2533 0.317056,-0.3346 0.07961,-0.081 0.2751,-0.296 0.434416,-0.477 0.159318,-0.1809 0.412751,-0.4564 0.563169,-0.6122 0.303388,-0.3141 0.475053,-0.5086 0.541521,-0.6136 0.06453,-0.1019 0.432706,-0.5415 0.674991,-0.806 0.115697,-0.1262 0.243402,-0.2711 0.283784,-0.3218 0.04039,-0.051 0.162938,-0.1755 0.272318,-0.2772 0.271944,-0.2528 0.711456,-0.6985 0.957256,-0.9707 0.206444,-0.2286 2.323182,-2.3475 2.49232,-2.4948 0.05053,-0.044 0.210257,-0.1901 0.354957,-0.3246 0.144705,-0.1345 0.37709,-0.3438 0.51642,-0.4649 0.13933,-0.1212 0.390575,-0.3472 0.55833,-0.5022 0.167755,-0.155 0.395745,-0.3655 0.50665,-0.4678 0.1109,-0.1022 0.21124,-0.2012 0.22296,-0.22 0.01175,-0.019 0.03435,-0.034 0.05032,-0.034 0.01595,0 0.118185,-0.081 0.227215,-0.18 0.243015,-0.2207 0.396375,-0.3457 0.741105,-0.6038 0.14666,-0.1099 0.290495,-0.2213 0.319635,-0.2477 0.07668,-0.069 0.5703,-0.4432 0.632575,-0.4791 0.02905,-0.017 0.09665,-0.071 0.15026,-0.1211 0.05362,-0.05 0.166645,-0.1368 0.251185,-0.1931 0.09164,-0.061 0.16009,-0.128 0.16955,-0.1657 0.01185,-0.047 0.0343,-0.063 0.08906,-0.063 0.04025,0 0.104655,-0.027 0.14306,-0.06 0.03845,-0.033 0.10618,-0.088 0.15056,-0.1221 0.05088,-0.039 0.0807,-0.086 0.0807,-0.1272 0,-0.055 0.0096,-0.063 0.06352,-0.049 0.05591,0.014 0.06634,0 0.08703,-0.083 0.01295,-0.055 0.04435,-0.1096 0.06981,-0.1221 0.02545,-0.013 0.0673,-0.033 0.09297,-0.045 0.02565,-0.013 0.05032,-0.053 0.05479,-0.09 0.0045,-0.037 0.03745,-0.095 0.07332,-0.1287 0.03585,-0.034 0.06521,-0.082 0.06521,-0.1079 0,-0.025 0.0317,-0.084 0.07044,-0.1304 0.06856,-0.082 0.07001,-0.091 0.05423,-0.3421 -0.009,-0.1421 -0.0243,-0.3904 -0.0341,-0.5518 -0.02015,-0.3306 -0.07677,-0.4915 -0.27653,-0.7858 -0.162715,-0.2396 -0.26075,-0.4498 -0.39236,-0.8411 -0.09869,-0.2935 -0.23043,-0.6346 -0.329585,-0.8535 -0.0133,-0.03 -0.05299,-0.1313 -0.08825,-0.2267 -0.12108,-0.3276 -0.28427,-0.7336 -0.337665,-0.8401 -0.05541,-0.1106 -0.196005,-0.2267 -0.274435,-0.2267 -0.0573,0 -0.05891,0.069 -0.002,0.091 0.0335,0.013 0.0391,0.038 0.02545,0.1162 -0.0096,0.055 -0.0241,0.151 -0.0323,0.2137 -0.0096,0.074 -0.0326,0.1233 -0.06542,0.1409 -0.02785,0.015 -0.05062,0.051 -0.05062,0.08 0,0.1511 -0.48905,0.8701 -0.909265,1.3368 -0.26382,0.293 -0.286405,0.3155 -0.31685,0.3155 -0.0144,0 -0.0336,0.03 -0.04265,0.066 -0.0091,0.036 -0.0393,0.073 -0.06717,0.082 -0.0279,0.01 -0.05068,0.025 -0.05068,0.036 0,0.012 -0.170925,0.1575 -0.379805,0.325 -0.208895,0.1675 -0.490085,0.3945 -0.62486,0.5045 -0.13477,0.1101 -0.338845,0.2696 -0.453495,0.3545 -0.114645,0.085 -0.274445,0.2086 -0.355115,0.2747 -0.219185,0.1798 -0.52648,0.4159 -0.636213,0.4889 -0.0534,0.036 -0.177324,0.1316 -0.275373,0.2134 -0.09806,0.082 -0.240974,0.1908 -0.317578,0.2422 -0.07661,0.051 -0.194361,0.1427 -0.261697,0.203 -0.06732,0.06 -0.152404,0.1251 -0.189071,0.144 -0.03666,0.019 -0.154922,0.1017 -0.262781,0.1838 -0.445899,0.3394 -0.621454,0.4696 -0.769736,0.5708 -0.04724,0.033 -0.185149,0.1306 -0.306464,0.2186 -0.121324,0.088 -0.246528,0.178 -0.278234,0.2 -0.283413,0.1968 -0.708338,0.5148 -0.811339,0.6072 -0.0697,0.063 -0.16999,0.1318 -0.222862,0.1539 -0.05287,0.022 -0.198454,0.115 -0.323528,0.2063 -0.253187,0.185 -0.264524,0.1928 -0.685649,0.4695 -0.326229,0.2144 -0.565083,0.364 -0.792573,0.4965 -0.08067,0.047 -0.248663,0.1492 -0.373324,0.227 -0.459776,0.2871 -0.633042,0.3885 -0.909765,0.5326 -0.155719,0.081 -0.395705,0.215 -0.533316,0.2974 -0.137601,0.082 -0.321774,0.188 -0.409254,0.2345 -0.08748,0.046 -0.178424,0.102 -0.202088,0.1234 -0.02367,0.022 -0.05561,0.039 -0.071,0.039 -0.01538,0 -0.04291,0.018 -0.06115,0.04 -0.01827,0.022 -0.05427,0.04 -0.08,0.04 -0.02574,0 -0.06258,0.019 -0.08186,0.042 -0.01929,0.023 -0.113753,0.083 -0.209931,0.1333 -0.09617,0.05 -0.258851,0.139 -0.361519,0.1978 -0.10266,0.059 -0.234659,0.1325 -0.293324,0.1637 -0.05867,0.032 -0.112666,0.065 -0.11999,0.075 -0.0183,0.024 -0.253169,0.1595 -0.404466,0.2329 -0.06846,0.033 -0.132167,0.073 -0.14157,0.088 -0.0094,0.015 -0.03997,0.027 -0.06793,0.027 -0.02797,0 -0.08684,0.033 -0.130855,0.073 -0.133238,0.1221 -0.234798,0.1934 -0.275696,0.1934 -0.02132,0 -0.08408,0.036 -0.139441,0.08 -0.05537,0.044 -0.114755,0.08 -0.131976,0.08 -0.01723,0 -0.05815,0.036 -0.09093,0.081 -0.03301,0.044 -0.135179,0.1164 -0.228939,0.1607 -0.09314,0.044 -0.182934,0.096 -0.199573,0.1165 -0.01664,0.02 -0.122867,0.057 -0.236064,0.082 -0.275597,0.061 -0.278468,0.062 -0.266412,0.098 0.0057,0.018 0.159771,0.069 0.342211,0.1143 0.305453,0.076 0.478359,0.149 0.478359,0.2014 0,0.012 0.033,0.034 0.07333,0.05 0.06305,0.025 0.130667,0.073 0.35333,0.2514 0.02199,0.017 0.07899,0.06 0.126654,0.093 0.07326,0.052 0.08666,0.078 0.08666,0.1689 0,0.063 0.02107,0.137 0.05086,0.1788 0.0859,0.1207 0.04905,0.5751 -0.06643,0.8193 -0.03795,0.08 -0.121071,0.3466 -0.184695,0.5918 -0.06364,0.2454 -0.163843,0.5841 -0.222694,0.7528 -0.05885,0.1687 -0.119027,0.374 -0.133719,0.4561 -0.03019,0.1689 -0.380034,1.1867 -0.457277,1.3304 -0.09212,0.1713 -0.126865,0.3497 -0.117161,0.6014 0.01022,0.2654 0.08609,0.7374 0.122323,0.7612 0.01281,0.01 0.03061,0.094 0.03961,0.1902 l 0.01633,0.1749 -0.208068,0.2232 c -0.11444,0.1228 -0.23018,0.232 -0.257202,0.2426 -0.02701,0.01 -0.07524,0.043 -0.107172,0.073 -0.07355,0.068 -0.163755,0.073 -0.144738,0.01 0.0075,-0.025 0.02162,-0.1277 0.03157,-0.2267 0.01506,-0.15 0.01142,-0.1801 -0.02177,-0.1801 -0.05219,0 -0.07817,0.037 -0.151329,0.2134 -0.06798,0.1643 -0.149997,0.2669 -0.213015,0.2665 -0.04555,0 -0.224365,-0.086 -0.378643,-0.1813 -0.05369,-0.033 -0.124782,-0.1129 -0.159948,-0.1792 -0.03483,-0.066 -0.07095,-0.1194 -0.08029,-0.1194 -0.04601,0 -0.14252,0.4353 -0.162597,0.7333 -0.0094,0.1391 -0.08232,0.1771 -0.29753,0.1549 -0.136825,-0.014 -0.161224,-0.026 -0.205037,-0.098 -0.02735,-0.045 -0.05747,-0.1362 -0.06692,-0.2027 -0.0095,-0.067 -0.04476,-0.2409 -0.07844,-0.3876 -0.105731,-0.4604 -0.132688,-0.6584 -0.128042,-0.9402 0.0041,-0.2516 10e-4,-0.2734 -0.04574,-0.2734 -0.06458,0 -0.09473,0.06 -0.118196,0.2334 -0.01542,0.1142 -0.02843,0.14 -0.07057,0.14 -0.02842,0 -0.05807,0.017 -0.06589,0.037 -0.0079,0.021 -0.036,0.032 -0.06262,0.024 -0.07061,-0.018 -0.289045,0.1548 -0.419875,0.3331 -0.208522,0.2841 -0.380971,0.6975 -0.564213,1.3525 -0.1103,0.3942 -0.186361,0.8042 -0.326581,1.7603 -0.07885,0.5376 -0.106175,0.6248 -0.26236,0.8374 -0.563028,0.7665 -0.873704,1.3059 -1.003947,1.743 -0.02076,0.07 -0.05703,0.1897 -0.0806,0.2667 -0.05249,0.1715 -0.156063,0.5729 -0.194411,0.7535 -0.01558,0.073 -0.05319,0.4034 -0.0836,0.7335 -0.03039,0.33 -0.06674,0.6781 -0.08076,0.7734 -0.01403,0.095 -0.04321,0.2994 -0.06484,0.4534 -0.02165,0.1541 -0.06375,0.4121 -0.09356,0.5735 -0.02981,0.1613 -0.06558,0.4168 -0.07947,0.5678 -0.0139,0.1509 -0.03239,0.2859 -0.0411,0.3 -0.01,0.016 -0.774988,0.025 -2.047544,0.025 -1.720085,0 -2.258653,-0.011 -3.511623,-0.065 -1.468115,-0.064 -1.488898,-0.066 -2.599906,-0.2128 -0.61597,-0.081 -1.341945,-0.1838 -1.613275,-0.2275 -0.27132,-0.043 -0.823301,-0.1223 -1.226618,-0.1746 -0.827917,-0.1074 -1.443232,-0.2068 -2.239918,-0.3619 -1.191646,-0.2319 -1.756005,-0.3173 -2.35991,-0.3569 -0.936685,-0.061 -1.832379,-0.096 -3.133224,-0.1208 -1.055084,-0.02 -1.336714,-0.017 -2.159916,0.028 l -0.946631,0.051 -0.826638,0.1582 c -1.3518114,0.2587 -2.3085309,0.475 -2.959896,0.6691 -0.1906525,0.057 -0.398398,0.117 -0.4616495,0.1337 -0.063242,0.016 -0.1315735,0.036 -0.151841,0.044 -0.088347,0.034 -0.508877,-0.948 -0.837613,-1.9558 -0.282235,-0.8652 -0.4799625,-1.3193 -0.7433807,-1.7073 -0.1492909,-0.2199 -0.1945026,-0.248 -0.3983881,-0.248 -0.1592381,0 -0.1752728,-0.01 -0.3151001,-0.1201 -0.08102,-0.066 -0.1545819,-0.12 -0.1634509,-0.12 -0.033793,0 0.015078,1.4547 0.058243,1.7336 0.3007385,1.9437 1.5944684,3.5378 3.4265044,4.222 0.4319286,0.1613 1.0300796,0.2885 1.5066049,0.3205 0.07334,0 11.100931,0.01 24.505763,0.01 23.350102,0 24.384182,-0.01 24.652427,-0.05 z m -37.003938,-5.8149 c 0.05574,-0.024 0.210174,-0.1154 0.343179,-0.2044 0.318729,-0.2132 0.3602,-0.2332 0.581642,-0.2797 0.242758,-0.051 0.368063,-0.1166 0.559279,-0.2925 0.180777,-0.1662 0.200399,-0.1779 0.420672,-0.2501 0.348368,-0.1142 0.49661,-0.2856 0.530927,-0.614 0.01724,-0.165 0.01976,-0.1692 0.244562,-0.4066 0.221312,-0.2337 0.520488,-0.4676 0.740347,-0.5787 0.05983,-0.031 0.221815,-0.087 0.359989,-0.127 0.518543,-0.1485 0.813577,-0.255 0.983094,-0.3547 0.09612,-0.056 0.315877,-0.1835 0.488349,-0.2822 0.172471,-0.099 0.325461,-0.2016 0.339983,-0.2287 0.01452,-0.027 0.02653,-0.1672 0.0267,-0.3111 10e-4,-0.4105 0.01187,-0.4491 0.156467,-0.5304 0.347954,-0.1955 0.717901,-0.2778 1.249855,-0.278 0.341415,0 0.327386,0.01 0.50805,-0.2591 0.110348,-0.1626 0.240772,-0.2632 0.671904,-0.5186 0.276874,-0.164 0.532663,-0.3673 0.803903,-0.6388 l 0.230582,-0.2309 0.107456,-0.3318 c 0.05911,-0.1825 0.131986,-0.3734 0.161969,-0.4242 0.03411,-0.058 0.06955,-0.1996 0.09472,-0.3789 0.02211,-0.1575 0.0594,-0.3612 0.08288,-0.4525 0.05664,-0.2204 0.226804,-0.5357 0.425156,-0.7878 0.08875,-0.1127 0.240621,-0.3191 0.337505,-0.4584 0.09687,-0.1394 0.279574,-0.3854 0.405986,-0.5468 0.126424,-0.1613 0.273587,-0.3773 0.327034,-0.48 0.06762,-0.13 0.179405,-0.2719 0.367554,-0.4668 0.149817,-0.1552 0.363701,-0.4168 0.479654,-0.5867 0.115095,-0.1687 0.289307,-0.4088 0.387152,-0.5335 0.09784,-0.1247 0.260966,-0.3347 0.362507,-0.4667 0.101551,-0.132 0.27768,-0.3392 0.391415,-0.4603 0.113733,-0.1212 0.214506,-0.2511 0.223952,-0.2888 0.0095,-0.037 0.01143,-0.1575 0.0044,-0.2666 -0.02305,-0.3592 -0.106827,-0.3915 -0.986027,-0.3796 l -0.621291,0.01 -0.399989,-0.099 c -0.219991,-0.054 -0.48998,-0.1062 -0.599976,-0.1156 -0.290579,-0.025 -0.661845,-0.118 -1.3157,-0.3306 -0.557828,-0.1814 -0.806028,-0.2827 -0.904382,-0.3694 -0.02575,-0.023 -0.05433,-0.034 -0.0635,-0.024 -0.03436,0.034 -0.121685,-0.044 -0.373534,-0.3353 -0.305314,-0.3531 -0.462759,-0.5867 -0.462759,-0.6868 0,-0.04 -0.0468,-0.1728 -0.104009,-0.2959 -0.270956,-0.5828 -0.347603,-1.5353 -0.160155,-1.9902 0.03031,-0.074 0.02876,-0.1255 -0.01049,-0.3531 -0.03942,-0.2286 -0.06686,-0.3042 -0.191358,-0.5272 -0.07993,-0.1432 -0.196578,-0.3864 -0.259225,-0.5404 l -0.113897,-0.28 -0.01375,-0.4402 c -0.0076,-0.242 -0.02451,-0.4567 -0.03766,-0.4772 -0.01923,-0.03 -0.08126,-0.034 -0.316991,-0.019 -0.161203,0.01 -0.30344,0.024 -0.316078,0.032 -0.01264,0.01 -0.023,0.1 -0.023,0.2043 0,0.206 -0.05353,0.3551 -0.174356,0.4855 -0.0361,0.039 -0.06563,0.08 -0.06563,0.091 0,0.011 -0.045,0.063 -0.1,0.1147 l -0.1,0.095 -2.626575,0.2436 c -1.444613,0.1341 -2.652213,0.2368 -2.683557,0.2284 -0.03135,-0.01 -0.06505,0 -0.0749,0.014 -0.02033,0.033 -0.298904,0.04 -0.31254,0.01 -0.0049,-0.012 -0.08959,-0.072 -0.188224,-0.1334 -0.120628,-0.076 -0.209388,-0.1125 -0.271118,-0.1125 -0.102194,0 -0.09095,-0.021 -0.24953,0.4538 l -0.07592,0.227 0.144786,0.1064 c 0.151921,0.1116 0.428381,0.4062 0.548848,0.5849 0.0686,0.1018 0.07539,0.2051 0.01936,0.2949 -0.0092,0.014 -0.01722,0.075 -0.01793,0.1333 -0.001,0.081 -0.03561,0.1627 -0.141661,0.3357 -0.153978,0.2512 -0.29713,0.3801 -0.542932,0.4888 -0.08319,0.037 -0.181793,0.1068 -0.226048,0.1605 -0.05153,0.062 -0.134657,0.1173 -0.241941,0.1593 -0.278223,0.1091 -0.488277,0.2543 -0.543406,0.3757 -0.06666,0.1467 -0.06206,0.3324 0.01311,0.5292 0.08136,0.2129 0.233919,1.0064 0.249571,1.2981 0.01201,0.2236 0.01084,0.2288 -0.0862,0.3867 -0.0541,0.088 -0.143324,0.256 -0.198281,0.3734 -0.102517,0.2189 -0.318567,0.5298 -0.386273,0.5558 -0.0209,0.01 -0.08827,0.078 -0.149706,0.1562 -0.14027,0.1777 -0.411963,0.4072 -0.874247,0.7382 -0.187992,0.1347 -0.297936,0.3179 -0.297271,0.4954 0,0.1067 0.08167,0.5941 0.130706,0.784 0.01387,0.054 0.03241,0.1816 0.0412,0.2843 0.04443,0.5187 0.08058,0.7455 0.161576,1.0135 0.107063,0.3543 0.283696,0.9877 0.356976,1.2802 0.165638,0.6612 0.290268,1.3711 0.251667,1.4335 -0.0175,0.028 0.100159,0.3818 0.264175,0.7935 0.296253,0.7438 0.317257,0.8233 0.341504,1.2937 0.02452,0.4754 0.07823,0.8235 0.159481,1.0336 0.104785,0.271 0.185573,0.6342 0.185573,0.8343 0,0.3906 0.04832,0.6288 0.226986,1.1192 0.05344,0.1467 0.115548,0.3267 0.138022,0.4001 0.06144,0.2005 0.125678,0.3122 0.312884,0.5442 0.09361,0.1159 0.178981,0.239 0.189725,0.2734 0.01074,0.034 0.102678,0.1426 0.204309,0.2404 0.184171,0.1773 0.185229,0.1778 0.323061,0.17 0.07606,0 0.183901,-0.027 0.239645,-0.05 z M 5.9172035,285.3826 c 0.063937,-0.029 0.1299305,-0.053 0.146671,-0.053 0.048115,0 0.3142031,-0.1142 0.4202176,-0.18 0.053062,-0.033 0.1089875,-0.06 0.1242865,-0.06 0.073017,0 0.159631,-0.1597 0.1775905,-0.3274 0.01008,-0.094 0.035565,-0.2043 0.056641,-0.245 0.021075,-0.04 0.039265,-0.1415 0.040425,-0.2242 0.0012,-0.083 0.00866,-0.1337 0.01668,-0.1136 0.00807,0.02 0.051481,0.07 0.096592,0.11 0.079971,0.072 0.08115,0.076 0.047175,0.1789 -0.0414,0.1255 -0.032645,0.1916 0.03068,0.2315 0.03447,0.022 0.060369,0.021 0.099635,-0.01 0.029185,-0.018 0.089647,-0.033 0.134365,-0.033 0.088991,0 0.1959839,-0.058 0.2802599,-0.1527 0.0298,-0.034 0.06694,-0.061 0.08253,-0.061 0.01559,0 0.05007,-0.024 0.07662,-0.053 0.02655,-0.03 0.064,-0.053 0.08323,-0.053 0.01923,0 0.182368,-0.1476 0.362519,-0.328 0.320573,-0.3211 0.847289,-0.7431 1.035553,-0.8297 0.05208,-0.024 0.177218,-0.1093 0.278082,-0.1897 0.100865,-0.08 0.191419,-0.1462 0.201225,-0.1462 0.0098,0 0.04666,-0.025 0.0819,-0.056 0.03524,-0.03 0.205619,-0.1279 0.378594,-0.2162 0.330148,-0.1684 0.472132,-0.2678 0.472132,-0.3307 0,-0.021 -0.02604,-0.037 -0.05941,-0.037 -0.05263,0 -0.04795,-0.01 0.04097,-0.083 0.0552,-0.045 0.162937,-0.1293 0.239401,-0.1861 0.07647,-0.057 0.169025,-0.1288 0.20569,-0.1597 0.06699,-0.057 0.328061,-0.2397 0.743935,-0.5217 0.123167,-0.083 0.266089,-0.1889 0.317599,-0.2342 0.0515,-0.046 0.149906,-0.1184 0.218671,-0.1625 0.15178,-0.097 0.463796,-0.3117 0.57227,-0.3936 0.07232,-0.055 0.350918,-0.2599 0.480768,-0.3544 0.477251,-0.3471 0.726872,-0.5416 0.905653,-0.7057 0.08854,-0.081 0.220978,-0.1951 0.294308,-0.2532 0.304125,-0.2406 0.654469,-0.6532 0.781295,-0.9202 0.201638,-0.4244 0.313196,-1.0643 0.189624,-1.0877 -0.02331,-0.01 -0.115789,0.064 -0.205518,0.1531 -0.08972,0.089 -0.181481,0.1612 -0.203915,0.1612 -0.02244,0 -0.05834,0.042 -0.07979,0.093 -0.02144,0.051 -0.0493,0.093 -0.06188,0.093 -0.03808,0 -0.190208,0.1308 -0.526927,0.4533 -0.671783,0.6432 -0.995813,0.9124 -1.389021,1.1536 -0.505148,0.3099 -1.006083,0.5192 -1.474516,0.6161 -0.108574,0.023 -0.20457,0.051 -0.213328,0.064 -0.0088,0.013 -0.09991,0.055 -0.202566,0.094 -0.274736,0.1033 -0.529587,0.2095 -0.559984,0.2335 -0.05158,0.041 -0.51307,0.2127 -0.570365,0.2127 -0.0319,0 -0.101066,0.018 -0.153716,0.04 -0.05265,0.022 -0.120094,0.04 -0.149875,0.04 -0.08309,0 -0.689814,0.1497 -1.03264,0.2548 -0.289199,0.089 -0.561799,0.1703 -0.773303,0.2317 -0.05133,0.015 -0.141329,0.043 -0.199995,0.061 -0.05866,0.019 -0.183024,0.042 -0.276349,0.052 -0.09334,0.01 -0.1893334,0.027 -0.2133299,0.039 -0.023995,0.011 -0.087822,0.043 -0.141843,0.068 -0.05401,0.026 -0.1666555,0.1237 -0.250326,0.2173 -0.083671,0.093 -0.160609,0.1701 -0.17098,0.1701 -0.01038,0 -0.027465,-0.183 -0.037975,-0.4067 -0.01051,-0.2237 -0.02988,-0.5328 -0.043035,-0.6868 -0.013155,-0.154 -0.028775,-0.4481 -0.03471,-0.6535 -0.010555,-0.3648 -0.060228,-0.7319 -0.1030515,-0.7616 -0.01179,-0.01 -0.03854,-0.1282 -0.059452,-0.2667 -0.020905,-0.1385 -0.050271,-0.2839 -0.065258,-0.3229 -0.016225,-0.042 -0.02609,-0.3392 -0.02438,-0.7335 0.0028,-0.6462 0.00445,-0.6651 0.066346,-0.7735 0.03491,-0.061 0.080929,-0.1256 0.1022655,-0.1433 0.021335,-0.018 0.03879,-0.055 0.03879,-0.082 0,-0.028 0.00998,-0.05 0.02216,-0.05 0.012185,0 0.039185,-0.033 0.059997,-0.073 0.02081,-0.04 0.051239,-0.085 0.067616,-0.1 0.065822,-0.059 0.1253145,-0.6268 0.06567,-0.6268 -0.013505,0 -0.03242,-0.036 -0.042045,-0.08 -0.044345,-0.2019 -0.112575,-0.1267 -0.3747635,0.4131 -0.2296061,0.4728 -0.3098601,0.6945 -0.3992751,1.103 -0.036455,0.1665 -0.072373,0.3127 -0.079831,0.3247 -0.018785,0.031 -0.1685705,1.0503 -0.1996525,1.3595 -0.01402,0.1393 -0.03734,0.3734 -0.051833,0.5201 -0.014495,0.1466 -0.03336,0.5487 -0.041915,0.8934 -0.021125,0.8505 -0.075516,1.2591 -0.2538335,1.907 -0.040375,0.1467 -0.089063,0.3673 -0.1081915,0.4903 -0.01933,0.1242 -0.053133,0.2418 -0.076081,0.2648 -0.031835,0.032 -0.04128,0.1029 -0.04121,0.3099 9.4e-5,0.2195 0.013785,0.3126 0.074983,0.5087 0.04119,0.132 0.1004815,0.324 0.131765,0.4267 0.031295,0.1027 0.08883,0.2707 0.127884,0.3734 0.039045,0.1027 0.079155,0.2527 0.089133,0.3334 0.00998,0.081 0.03062,0.1857 0.045865,0.2334 0.0247,0.077 0.03844,0.087 0.125657,0.086 0.053858,0 0.150238,-0.024 0.214165,-0.053 z m 0.5198731,-1.9598 c -9.4e-5,-0.132 0.00445,-0.1894 0.00998,-0.1275 0.00554,0.062 0.00564,0.1699 0,0.2401 -0.00554,0.07 -0.01009,0.02 -0.01017,-0.1126 z m 0.02189,-0.2934 c -0.001,-0.03 0.00826,-0.1013 0.02045,-0.16 0.018545,-0.09 0.02204,-0.094 0.02197,-0.026 -9.35e-5,0.093 -0.03993,0.2687 -0.04242,0.1867 z m 0.052378,-0.4668 c -0.0016,-0.051 0.01544,-0.1413 0.037885,-0.2 0.040625,-0.1062 0.040735,-0.1062 0.02303,-0.014 -0.00978,0.051 -0.02684,0.1414 -0.037885,0.2001 l -0.020085,0.1066 z m -3.6591334,-1.2335 c 0.2434329,-0.4147 0.4328862,-0.7133 0.655739,-1.0335 0.096974,-0.1394 0.3557263,-0.5234 0.5749908,-0.8535 0.2192755,-0.33 0.5042005,-0.7506 0.633164,-0.9345 0.4489405,-0.6402 0.626602,-0.9715 0.763708,-1.4239 0.1179575,-0.3892 0.1496435,-0.4503 0.4140295,-0.7983 0.2850065,-0.3751 0.4804161,-0.7023 0.4800326,-0.804 0,-0.044 -0.035045,-0.176 -0.077502,-0.2934 -0.04245,-0.1173 -0.1274011,-0.3514 -0.1887686,-0.5201 -0.100723,-0.2769 -0.1164349,-0.3546 -0.1615859,-0.8001 -0.027515,-0.2714 -0.050402,-0.5605 -0.050866,-0.6426 -0.001,-0.1666 -0.01059,-0.1802 -0.271562,-0.3833 -0.082884,-0.064 -0.1578875,-0.1101 -0.1666555,-0.1014 -0.00877,0.01 -0.015955,-0.013 -0.015955,-0.049 0,-0.035 -0.054282,-0.3285 -0.120638,-0.6512 -0.066345,-0.3227 -0.157182,-0.7728 -0.2018695,-1.0001 -0.044675,-0.2274 -0.092388,-0.4175 -0.1060145,-0.4224 -0.013635,0 -0.024975,-0.035 -0.025205,-0.067 -0.0011,-0.1506 -0.04733,-0.1278 -0.161435,0.079 -0.131382,0.2386 -0.319192,0.4503 -0.5058335,0.5701 -0.142609,0.092 -0.3926835,0.1314 -0.8309513,0.1323 -0.3563815,0 -0.4801134,-0.034 -0.5882746,-0.1681 -0.2273176,-0.2804 -0.233042,-0.2957 -0.2326087,-0.6178 0.00101,-0.6439 0.076132,-1.3476 0.1717153,-1.6055 0.1000681,-0.2699 0.2076849,-0.5025 0.2793824,-0.6038 0.043468,-0.061 0.086301,-0.142 0.09518,-0.1791 0.016902,-0.071 0.3608659,-0.5022 0.4325433,-0.5426 0.031213,-0.017 0.036,-0.014 0.019481,0.014 -0.036776,0.062 0.5013484,-0.5089 0.6039969,-0.6404 0.11322,-0.145 0.408476,-0.4564 0.4327145,-0.4564 0.047195,0 0.8571655,-0.4093 1.025081,-0.518 0.265918,-0.1721 0.4915221,-0.2733 0.7127621,-0.3196 0.287607,-0.06 0.8507255,-0.2502 0.9587456,-0.3236 0.113754,-0.077 0.114691,-0.077 0.125858,-0.026 0.0048,0.022 0.07831,-0.061 0.167745,-0.1898 0.215898,-0.311 0.482068,-0.5511 0.692172,-0.6245 0.232579,-0.081 1.050962,-0.1059 1.393345,-0.042 0.129396,0.024 0.3312659,0.055 0.4485979,0.069 0.117333,0.014 0.289885,0.05 0.383462,0.08 0.09358,0.03 0.215446,0.055 0.270836,0.055 0.05539,0 0.178911,0.035 0.274505,0.078 0.282416,0.1267 0.234423,0.1441 0.696405,-0.2519 l 0.24955,-0.2139 0.302573,-0.073 c 0.372456,-0.09 0.473936,-0.091 0.618056,-0.01 0.06141,0.036 0.207544,0.089 0.324736,0.1176 0.567361,0.1386 1.026823,0.2761 1.142847,0.3418 0.02136,0.012 0.0886,0.068 0.149401,0.1245 0.08795,0.082 0.124195,0.099 0.177329,0.086 0.08595,-0.022 0.347139,-0.2001 0.449445,-0.3073 0.05366,-0.056 0.139342,-0.1013 0.264728,-0.1394 0.101963,-0.031 0.270261,-0.1045 0.373988,-0.1634 0.249984,-0.142 0.686055,-0.3116 0.868564,-0.3379 0.133971,-0.019 0.163965,-0.013 0.346656,0.071 0.28819,0.132 0.779017,0.4706 0.936138,0.6456 0.165578,0.1845 0.227026,0.3002 0.274334,0.5165 0.04775,0.2184 0.113271,0.366 0.170325,0.3838 0.0252,0.01 0.07766,0.032 0.116596,0.052 0.03892,0.021 0.09292,0.038 0.119994,0.039 0.02707,0 0.09722,0.024 0.155881,0.052 0.05867,0.028 0.15671,0.052 0.217876,0.053 0.123811,0 0.121585,-0.01 0.156516,0.2942 0.0095,0.081 0.04274,0.1849 0.07392,0.2315 0.05336,0.08 0.06401,0.084 0.18131,0.07 0.122684,-0.014 0.124922,-0.014 0.143335,0.071 0.01029,0.047 0.03731,0.092 0.06005,0.101 0.05091,0.02 0.113622,-0.06 0.113622,-0.1446 0,-0.034 0.0071,-0.062 0.01565,-0.062 0.0086,0 0.542861,-0.054 1.187232,-0.1201 0.644381,-0.066 1.175814,-0.12 1.180973,-0.12 0.0051,0 0.01676,0.037 0.02577,0.082 0.01324,0.066 0.02794,0.08 0.07666,0.073 0.04631,-0.01 0.06222,-0.028 0.06864,-0.095 0.0058,-0.06 0.02211,-0.087 0.05334,-0.087 0.02473,0 0.632951,-0.062 1.351589,-0.137 0.718638,-0.075 1.379467,-0.1367 1.468499,-0.1364 0.182399,0 0.268831,0.056 0.346374,0.223 0.137216,0.2952 0.1441,0.2998 0.388692,0.2606 0.10799,-0.017 0.199501,-0.034 0.203351,-0.036 0.0038,0 -0.05149,-0.142 -0.122977,-0.3093 -0.1093,-0.2558 -0.275491,-0.7729 -0.334601,-1.041 -0.0087,-0.039 0.0067,-0.1344 0.03499,-0.2167 0.02773,-0.081 0.06462,-0.215 0.08196,-0.2985 0.01733,-0.084 0.0665,-0.2367 0.109239,-0.3404 0.146278,-0.3548 0.104241,-0.4295 -0.273013,-0.4852 -0.370158,-0.055 -0.982026,-0.2684 -1.162508,-0.4061 -0.04768,-0.037 -0.08669,-0.057 -0.08669,-0.047 0,0.01 -0.0301,-0.01 -0.06689,-0.043 -0.180564,-0.1696 -0.43976,-0.8345 -0.43976,-1.1281 0,-0.1754 0.144494,-0.759 0.255669,-1.0327 0.0376,-0.093 0.111265,-0.2353 0.163712,-0.3172 0.05245,-0.082 0.157465,-0.281 0.233365,-0.4425 0.0759,-0.1614 0.181662,-0.3543 0.235028,-0.4286 0.05336,-0.074 0.163248,-0.2637 0.244209,-0.4209 0.08095,-0.1572 0.259548,-0.4744 0.396895,-0.7049 0.403216,-0.6767 0.439771,-0.7951 0.264396,-0.8571 -0.055,-0.019 -0.117997,-0.051 -0.139998,-0.07 -0.022,-0.019 -0.106085,-0.063 -0.186862,-0.099 -0.153364,-0.068 -0.29312,-0.2143 -0.29312,-0.3079 0,-0.028 -0.07499,-0.1289 -0.166656,-0.2238 -0.220011,-0.2276 -0.244078,-0.2593 -0.329775,-0.4344 -0.08663,-0.1769 -0.249107,-0.3303 -0.52349,-0.4942 -0.194845,-0.1163 -0.202011,-0.1243 -0.234968,-0.2609 -0.0299,-0.1239 -0.0273,-0.1748 0.02169,-0.4232 0.04564,-0.2314 0.07055,-0.2998 0.138215,-0.3792 0.242726,-0.2849 0.286416,-0.4234 0.324957,-1.0304 0.0227,-0.3575 0.04014,-0.4657 0.107435,-0.6668 0.04419,-0.132 0.08419,-0.277 0.08889,-0.3221 0.0048,-0.045 0.05776,-0.2021 0.117897,-0.3488 0.06013,-0.1466 0.107898,-0.2957 0.106155,-0.3313 -0.0017,-0.035 0.02255,-0.1847 0.05397,-0.3313 0.06968,-0.3253 0.09545,-0.528 0.161093,-1.2669 0.05281,-0.5945 0.148595,-1.1855 0.243906,-1.5051 0.09285,-0.3113 0.299126,-0.7933 0.46027,-1.0755 0.150066,-0.2628 0.248189,-0.4992 0.38458,-0.9267 0.05609,-0.1758 0.06838,-0.2678 0.06978,-0.522 0.002,-0.3625 0.008,-0.3497 -0.300506,-0.6515 -0.135433,-0.1325 -0.259881,-0.2866 -0.33304,-0.4125 -0.06425,-0.1106 -0.170577,-0.261 -0.236287,-0.3343 -0.162444,-0.1814 -0.191057,-0.2823 -0.174124,-0.614 0.01591,-0.312 0.07088,-0.4679 0.204651,-0.5805 0.09722,-0.082 0.115014,-0.086 0.187962,-0.04 0.04126,0.026 0.0833,0.025 0.205064,-0.01 l 0.153181,-0.039 0.06148,-0.24 c 0.03382,-0.132 0.08037,-0.3412 0.103455,-0.4648 0.07605,-0.4072 0.166525,-0.6704 0.316894,-0.9221 0.177225,-0.2967 0.551546,-0.7203 0.754896,-0.8543 0.08379,-0.055 0.208854,-0.1474 0.277932,-0.2048 0.06908,-0.057 0.231076,-0.1503 0.359989,-0.2066 0.354174,-0.1546 0.89633,-0.4678 1.342601,-0.7754 0.08153,-0.056 0.273526,-0.1626 0.426646,-0.2364 0.153132,-0.074 0.368416,-0.1875 0.47841,-0.2527 0.175919,-0.1042 0.225675,-0.1207 0.413315,-0.137 0.346887,-0.03 0.454484,-0.1 0.830013,-0.5349 0.129558,-0.1502 0.148385,-0.1618 0.35999,-0.2214 0.122806,-0.034 0.324201,-0.086 0.447552,-0.1143 0.123336,-0.028 0.369328,-0.099 0.54664,-0.1563 0.612957,-0.199 0.721005,-0.218 1.362341,-0.2399 0.606286,-0.021 0.963607,-0.065 1.399947,-0.1742 0.139334,-0.035 0.34332,-0.077 0.453316,-0.094 0.109993,-0.017 0.361994,-0.078 0.559986,-0.1347 0.197988,-0.057 0.488518,-0.1282 0.645599,-0.1579 0.157091,-0.03 0.331659,-0.07 0.387937,-0.09 0.08746,-0.031 0.109865,-0.031 0.154359,0 0.0382,0.029 0.09463,0.034 0.21205,0.023 0.08799,-0.01 0.345989,-0.021 0.57332,-0.029 0.227315,-0.01 0.437308,-0.024 0.466644,-0.038 0.02933,-0.013 0.121255,-0.029 0.204281,-0.037 0.08302,-0.01 0.182902,-0.034 0.221956,-0.06 0.03905,-0.026 0.109118,-0.05 0.15571,-0.055 0.04658,0 0.09669,-0.01 0.111355,-0.011 0.01468,0 0.051,0.01 0.08074,0.014 0.03515,0.011 0.07714,-0.01 0.119997,-0.04 0.08709,-0.074 0.262459,-0.1869 0.290701,-0.1869 0.01234,0 0.04087,0.028 0.06342,0.063 0.02929,0.044 0.08558,0.072 0.196941,0.096 0.141451,0.03 0.171975,0.028 0.328716,-0.025 0.186319,-0.062 0.426185,-0.1893 0.479578,-0.2536 0.05456,-0.066 0.256782,-0.047 0.599837,0.056 0.175988,0.053 0.342451,0.1079 0.369924,0.1224 0.02746,0.014 0.16546,0.057 0.306657,0.094 0.212743,0.056 0.304679,0.066 0.536702,0.059 0.455552,-0.014 1.114892,-0.01 1.386625,0.01 0.280802,0.017 0.404141,0.04 0.505466,0.093 0.03731,0.019 0.105414,0.035 0.15133,0.035 0.08374,0 0.343076,0.089 0.515104,0.176 0.08883,0.045 0.08996,0.048 0.03333,0.073 -0.09648,0.043 -0.07186,0.098 0.04392,0.098 0.07082,0 0.118239,0.017 0.153319,0.057 l 0.0508,0.057 -0.08564,-0.018 c -0.04767,-0.011 -0.106791,-0.01 -0.133336,0.01 -0.03745,0.022 -0.01765,0.028 0.09241,0.029 0.08781,0 0.177227,0.021 0.239601,0.054 0.05472,0.029 0.114018,0.053 0.131751,0.053 0.02889,0 0.36087,0.1499 0.461855,0.2086 0.022,0.013 0.07,0.04 0.106659,0.059 0.03666,0.02 0.126668,0.069 0.199994,0.1091 0.123572,0.068 0.514923,0.2088 0.583388,0.2106 0.01646,0 0.101662,0.049 0.189342,0.1066 0.08768,0.058 0.17882,0.106 0.202535,0.106 0.0237,0 0.06482,0.024 0.09136,0.053 0.02654,0.029 0.05925,0.053 0.07267,0.053 0.01341,0 0.07671,0.036 0.140663,0.08 0.06395,0.044 0.129486,0.08 0.145641,0.08 0.01614,0 0.03609,0.018 0.04433,0.039 0.0083,0.021 0.03996,0.047 0.07054,0.057 0.03057,0.01 0.09846,0.06 0.150867,0.111 0.05239,0.051 0.138595,0.121 0.191535,0.1547 0.08913,0.057 0.143285,0.1635 0.138025,0.2719 -0.001,0.018 0.0083,0.027 0.0202,0.019 0.012,-0.01 0.02955,0 0.03895,0.014 0.0095,0.015 0.0072,0.026 -0.005,0.024 -0.07172,-0.013 -0.09457,0 -0.06198,0.043 0.0368,0.044 0.09275,0.055 0.06667,0.013 -0.0091,-0.014 -0.004,-0.026 0.01175,-0.026 0.0155,0 0.02825,0.015 0.02825,0.034 0,0.019 0.0229,0.048 0.05094,0.065 0.028,0.018 0.0589,0.068 0.06862,0.1124 0.032,0.1458 0.304095,0.3173 0.68136,0.4296 0.31115,0.093 0.62302,0.2911 0.386175,0.2458 -0.0371,-0.01 -0.16932,0 -0.29381,0.01 -0.226095,0.019 -0.22637,0.019 -0.24807,0.1031 -0.0146,0.057 -0.0403,0.087 -0.07838,0.093 -0.07856,0.011 -0.104605,0.1399 -0.0464,0.2287 0.0373,0.057 0.132475,0.1077 0.23955,0.1279 0.01465,0.01 0.06262,0.039 0.10656,0.08 0.04395,0.041 0.148935,0.1075 0.23332,0.1476 0.08439,0.04 0.153435,0.088 0.153435,0.1071 0,0.019 0.01225,0.034 0.0272,0.034 0.01495,0 0.12456,0.084 0.243595,0.1871 0.119025,0.1029 0.30479,0.2421 0.4128,0.3095 0.10801,0.067 0.196385,0.1258 0.196385,0.1299 0,0 -0.01735,0.041 -0.03855,0.082 -0.03635,0.07 -0.0339,0.08 0.04175,0.1758 0.0442,0.056 0.107145,0.1167 0.13992,0.1354 0.19424,0.1107 0.25417,0.1526 0.37559,0.2632 0.07404,0.067 0.180715,0.1532 0.23705,0.1908 0.154575,0.103 0.44422,0.3892 0.44422,0.4389 0,0.036 -0.01245,0.032 -0.06658,-0.018 -0.0366,-0.034 -0.07094,-0.057 -0.07631,-0.051 -0.0053,0.01 0.189625,0.3002 0.43331,0.6534 0.426675,0.6184 0.447855,0.6554 0.57251,1.0001 0.299555,0.8285 0.58237,1.695 0.694665,2.1284 0.10925,0.4216 0.12859,0.4719 0.214525,0.5579 0.107235,0.1072 0.1109,0.1244 0.05179,0.2429 -0.0416,0.083 -0.04025,0.091 0.05546,0.2869 0.08521,0.1748 0.09593,0.2176 0.08136,0.3253 -0.01445,0.1067 -0.0015,0.1606 0.09378,0.3879 0.140545,0.3355 0.23579,0.6522 0.257365,0.8557 l 0.0169,0.1594 -0.08637,-0.073 c -0.07033,-0.059 -0.09618,-0.067 -0.13927,-0.044 -0.07914,0.043 -0.08728,0.092 -0.0377,0.232 0.07389,0.2078 0.07814,0.2439 0.03085,0.2621 -0.0237,0.01 -0.0434,0.036 -0.0439,0.06 0,0.024 -0.0173,0.066 -0.0374,0.092 -0.04225,0.056 -0.0174,0.1788 0.06453,0.3196 0.06943,0.1193 0.1604,0.4014 0.1604,0.4974 0,0.061 -0.018,0.09 -0.07676,0.1199 -0.121695,0.063 -0.150305,0.2222 -0.06074,0.3381 0.0583,0.075 0.137505,0.3002 0.137505,0.3902 0,0.035 -0.0125,0.087 -0.0278,0.1156 -0.0212,0.04 -0.0106,0.1038 0.04505,0.2716 0.04005,0.1209 0.07158,0.2257 0.07005,0.2331 -0.0015,0.01 0.0092,0.028 0.0239,0.045 0.0147,0.018 0.01945,0.044 0.01065,0.058 -0.0089,0.014 -0.0045,0.033 0.0097,0.042 0.02475,0.015 0.01285,0.4282 -0.01355,0.4708 -0.0067,0.011 0.002,0.051 0.0195,0.089 0.0242,0.053 0.02425,0.077 0,0.1007 -0.0172,0.017 -0.03125,0.076 -0.03125,0.1316 0,0.063 -0.0185,0.1181 -0.0495,0.148 -0.113785,0.1097 -0.13208,0.1712 -0.109645,0.3686 0.0117,0.1031 0.03985,0.2591 0.06255,0.3467 0.06036,0.233 0.03105,0.5323 -0.174855,1.7862 l -0.109505,0.6668 0.04295,0.5179 0.04295,0.5179 -0.06581,0.1961 c -0.0362,0.1079 -0.06581,0.2503 -0.06581,0.3165 0,0.1935 -0.277275,1.0842 -0.40056,1.2867 -0.05221,0.086 -0.10609,0.094 -0.10609,0.017 0,-0.049 -0.06395,-0.05 -0.103825,0 -0.0167,0.02 -0.05963,0.1227 -0.0954,0.2279 -0.04975,0.1463 -0.100265,0.2302 -0.214775,0.3568 -0.08235,0.091 -0.17589,0.1795 -0.20786,0.1966 -0.03195,0.017 -0.07714,0.065 -0.10038,0.1067 -0.02325,0.042 -0.05924,0.077 -0.07999,0.079 -0.02075,0 -0.05274,0.01 -0.07108,0.01 -0.01835,0 -0.03335,0.021 -0.03335,0.041 0,0.021 -0.01935,0.057 -0.043,0.081 -0.0306,0.031 -0.0427,0.091 -0.042,0.2086 10e-4,0.091 10e-4,0.2408 10e-4,0.3327 0,0.2122 0.06023,0.4191 0.161995,0.5597 0.0438,0.06 0.09755,0.1528 0.11946,0.2052 0.0219,0.053 0.100375,0.1594 0.174395,0.2377 0.07402,0.078 0.134575,0.1566 0.134575,0.174 0,0.055 0.125585,0.2819 0.231925,0.4181 0.15242,0.1953 0.259295,0.3732 0.367515,0.6117 0.05321,0.1172 0.121495,0.2396 0.15177,0.2718 0.03025,0.032 0.06561,0.1152 0.07852,0.1843 0.0129,0.069 0.05344,0.165 0.09006,0.213 0.0366,0.048 0.06998,0.1096 0.07413,0.1369 0.0136,0.089 0.146545,0.2886 0.265265,0.398 0.13465,0.1242 0.324635,0.2188 0.607405,0.3026 0.109995,0.033 0.22399,0.069 0.25332,0.08 0.02935,0.011 0.07941,0.021 0.111265,0.022 0.03185,0 0.155315,0.032 0.27434,0.07 0.119025,0.037 0.281665,0.076 0.36141,0.085 0.07974,0.01 0.13858,0.027 0.13074,0.04 -0.0079,0.013 0.004,0.023 0.02665,0.023 0.05143,0 0.12757,0.1439 0.141115,0.2667 0.0057,0.051 0.03475,0.1894 0.06469,0.3068 0.06979,0.2738 0.10996,0.8161 0.08174,1.1034 -0.0203,0.2064 -0.0152,0.249 0.06688,0.5601 0.04885,0.1853 0.135085,0.4569 0.191615,0.6035 0.05654,0.1467 0.11611,0.3568 0.1324,0.4668 0.02145,0.145 0.06292,0.2654 0.15086,0.438 0.08787,0.1724 0.112345,0.2434 0.08888,0.2579 -0.03065,0.019 0,0.095 0.13138,0.3309 0.0496,0.089 0.14087,0.3627 0.12786,0.3837 -0.0067,0.011 0.0107,0.055 0.03865,0.097 0.02965,0.046 0.0448,0.1016 0.0363,0.1354 -0.008,0.032 -0.0015,0.066 0.0143,0.076 0.01585,0.01 0.0288,0.043 0.0288,0.074 0,0.031 0.0082,0.048 0.0183,0.038 0.02825,-0.028 0.273255,0.6472 0.27452,0.7569 0.001,0.1066 0.417245,0.859 0.513295,0.9284 0.0271,0.019 0.06377,0.053 0.08154,0.074 0.06287,0.075 0.49811,0.4372 0.52498,0.4372 0.015,0 0.0273,0.031 0.0273,0.068 0,0.038 -0.01075,0.062 -0.0239,0.053 -0.01315,-0.01 -0.03075,0.01 -0.03915,0.025 -0.0102,0.026 10e-4,0.04 0.03435,0.04 0.06303,0 0.08066,0.047 0.06412,0.1693 -0.0128,0.095 -0.0107,0.098 0.07572,0.1006 0.04885,0 0.104725,0 0.124145,0 0.05534,-0.01 0.11449,0.055 0.16576,0.1743 0.0259,0.06 0.09963,0.1691 0.163825,0.2414 0.301765,0.3398 0.467255,0.6287 0.66072,1.1535 0.04235,0.1149 0.1559,0.372 0.25233,0.5712 0.09644,0.1991 0.175335,0.3689 0.175335,0.3772 0,0.01 0.06692,0.156 0.148705,0.3282 0.246005,0.5181 0.27201,0.5734 0.34784,0.7399 0.0401,0.088 0.118495,0.2741 0.17423,0.4134 l 0.101345,0.2534 -0.0068,-18.8033 c -0.0063,-17.5163 -0.0098,-18.8219 -0.05179,-19.075 -0.196575,-1.1841 -0.702015,-2.1851 -1.51291,-2.9961 -0.82033,-0.8205 -1.825205,-1.3245 -3.013815,-1.5115 -0.29422,-0.046 -1.299395,-0.049 -24.772421,-0.049 -23.473022,0 -24.478208,0 -24.7724156,0.049 -1.1878466,0.1869 -2.1926701,0.6911 -3.0133621,1.5119 -0.8116611,0.8118 -1.3056425,1.7884 -1.5111002,2.9874 -0.045877,0.2677 -0.048306,1.1859 -0.055229,20.9169 -0.00403,11.3504 -0.00282,20.637 0.00262,20.637 0.00544,0 0.096188,-0.147 0.2016882,-0.3267 z"
       id="path27"
       inkscape:connector-curvature="0" />
  </g>
</svg>
